M48
; DRILL file {KiCad 7.0.5} date Wed Jul 12 18:41:14 2023
; FORMAT={-:-/ absolute / inch / decimal}
; #@! TF.CreationDate,2023-07-12T18:41:14+05:30
; #@! TF.GenerationSoftware,Kicad,Pcbnew,7.0.5
; #@! TF.FileFunction,Plated,1,2,PTH
FMAT,2
INCH
; #@! TA.AperFunction,Plated,PTH,ViaDrill
T1C0.0150
; #@! TA.AperFunction,Plated,PTH,ComponentDrill
T2C0.0217
; #@! TA.AperFunction,Plated,PTH,ComponentDrill
T3C0.0300
; #@! TA.AperFunction,Plated,PTH,ComponentDrill
T4C0.0315
; #@! TA.AperFunction,Plated,PTH,ComponentDrill
T5C0.0354
; #@! TA.AperFunction,Plated,PTH,ComponentDrill
T6C0.0461
; #@! TA.AperFunction,Plated,PTH,ComponentDrill
T7C0.0591
%
G90
G05
T1
X6.666Y-4.282
T2
X6.579Y-4.397
X6.579Y-4.447
X6.579Y-4.497
T3
X6.04Y-4.5955
X6.04Y-4.8955
X6.14Y-4.5955
X6.14Y-4.8955
X6.24Y-4.5955
X6.24Y-4.8955
X6.34Y-4.5955
X6.34Y-4.8955
T4
X6.29Y-3.9555
X6.29Y-4.2555
X6.44Y-3.956
X6.44Y-4.256
X6.54Y-4.7268
X6.54Y-4.8055
X6.59Y-3.9555
X6.59Y-4.2555
X6.739Y-4.448
X6.74Y-3.9555
X6.74Y-4.2555
X6.8784Y-4.7219
X6.8784Y-4.8204
X6.892Y-3.955
X6.892Y-4.255
X7.039Y-3.955
X7.039Y-4.255
X7.039Y-4.448
T5
X5.822Y-2.945
X5.822Y-3.045
X6.09Y-4.0586
X6.09Y-4.1571
X6.09Y-4.2555
X6.289Y-2.949
X6.289Y-3.049
T6
X5.49Y-4.7555
T7
X5.49Y-3.9681
T0
M30
