%TF.GenerationSoftware,KiCad,Pcbnew,7.0.5*%
%TF.CreationDate,2023-07-12T18:43:18+05:30*%
%TF.ProjectId,555_Timer,3535355f-5469-46d6-9572-2e6b69636164,v01*%
%TF.SameCoordinates,Original*%
%TF.FileFunction,Soldermask,Top*%
%TF.FilePolarity,Negative*%
%FSLAX46Y46*%
G04 Gerber Fmt 4.6, Leading zero omitted, Abs format (unit mm)*
G04 Created by KiCad (PCBNEW 7.0.5) date 2023-07-12 18:43:18*
%MOMM*%
%LPD*%
G01*
G04 APERTURE LIST*
G04 Aperture macros list*
%AMRoundRect*
0 Rectangle with rounded corners*
0 $1 Rounding radius*
0 $2 $3 $4 $5 $6 $7 $8 $9 X,Y pos of 4 corners*
0 Add a 4 corners polygon primitive as box body*
4,1,4,$2,$3,$4,$5,$6,$7,$8,$9,$2,$3,0*
0 Add four circle primitives for the rounded corners*
1,1,$1+$1,$2,$3*
1,1,$1+$1,$4,$5*
1,1,$1+$1,$6,$7*
1,1,$1+$1,$8,$9*
0 Add four rect primitives between the rounded corners*
20,1,$1+$1,$2,$3,$4,$5,0*
20,1,$1+$1,$4,$5,$6,$7,0*
20,1,$1+$1,$6,$7,$8,$9,0*
20,1,$1+$1,$8,$9,$2,$3,0*%
G04 Aperture macros list end*
%ADD10C,1.701600*%
%ADD11O,1.701600X1.701600*%
%ADD12RoundRect,0.050800X-0.800000X0.800000X-0.800000X-0.800000X0.800000X-0.800000X0.800000X0.800000X0*%
%ADD13C,1.625600*%
%ADD14C,1.901600*%
%ADD15RoundRect,0.050800X0.900000X-0.900000X0.900000X0.900000X-0.900000X0.900000X-0.900000X-0.900000X0*%
%ADD16RoundRect,0.050800X-0.950000X0.950000X-0.950000X-0.950000X0.950000X-0.950000X0.950000X0.950000X0*%
%ADD17C,2.001600*%
%ADD18O,1.601600X1.101600*%
%ADD19RoundRect,0.050800X-0.750000X0.500000X-0.750000X-0.500000X0.750000X-0.500000X0.750000X0.500000X0*%
%ADD20RoundRect,0.050800X1.085000X-1.085000X1.085000X1.085000X-1.085000X1.085000X-1.085000X-1.085000X0*%
%ADD21C,2.601600*%
G04 APERTURE END LIST*
D10*
%TO.C,R2*%
X163576000Y-108102400D03*
D11*
X163576000Y-100482400D03*
%TD*%
D12*
%TO.C,C1*%
X166116000Y-120059700D03*
D10*
X166116000Y-122059700D03*
%TD*%
D13*
%TO.C,U1*%
X153416000Y-124345700D03*
X155956000Y-124345700D03*
X158496000Y-124345700D03*
X161036000Y-124345700D03*
X161036000Y-116725700D03*
X158496000Y-116725700D03*
X155956000Y-116725700D03*
X153416000Y-116725700D03*
%TD*%
D14*
%TO.C,D1*%
X147878800Y-74803000D03*
D15*
X147878800Y-77343000D03*
%TD*%
D11*
%TO.C,R1*%
X159766000Y-108089700D03*
D10*
X159766000Y-100469700D03*
%TD*%
%TO.C,C2*%
X174710400Y-122437400D03*
D12*
X174710400Y-119937400D03*
%TD*%
D11*
%TO.C,R7*%
X171196000Y-100469700D03*
D10*
X171196000Y-108089700D03*
%TD*%
D11*
%TO.C,R3*%
X175056800Y-108077000D03*
D10*
X175056800Y-100457000D03*
%TD*%
D15*
%TO.C,D2*%
X159740600Y-77444600D03*
D14*
X159740600Y-74904600D03*
%TD*%
D16*
%TO.C,S1*%
X154686000Y-103089700D03*
D17*
X154686000Y-105589700D03*
X154686000Y-108089700D03*
%TD*%
D11*
%TO.C,R4*%
X178790600Y-108077000D03*
D10*
X178790600Y-100457000D03*
%TD*%
D18*
%TO.C,Q1*%
X167106600Y-111683800D03*
X167106600Y-112953800D03*
D19*
X167106600Y-114223800D03*
%TD*%
D10*
%TO.C,R6*%
X167386000Y-108089700D03*
D11*
X167386000Y-100469700D03*
%TD*%
%TO.C,R5*%
X171170600Y-112979200D03*
D10*
X178790600Y-112979200D03*
%TD*%
D20*
%TO.C,BAT1*%
X139446000Y-120789700D03*
D21*
X139446000Y-100789700D03*
%TD*%
M02*
