%TF.GenerationSoftware,KiCad,Pcbnew,7.0.5*%
%TF.CreationDate,2023-07-12T18:43:18+05:30*%
%TF.ProjectId,555_Timer,3535355f-5469-46d6-9572-2e6b69636164,v01*%
%TF.SameCoordinates,Original*%
%TF.FileFunction,Copper,L1,Top*%
%TF.FilePolarity,Positive*%
%FSLAX46Y46*%
G04 Gerber Fmt 4.6, Leading zero omitted, Abs format (unit mm)*
G04 Created by KiCad (PCBNEW 7.0.5) date 2023-07-12 18:43:18*
%MOMM*%
%LPD*%
G01*
G04 APERTURE LIST*
%TA.AperFunction,ComponentPad*%
%ADD10C,1.600000*%
%TD*%
%TA.AperFunction,ComponentPad*%
%ADD11O,1.600000X1.600000*%
%TD*%
%TA.AperFunction,ComponentPad*%
%ADD12R,1.600000X1.600000*%
%TD*%
%TA.AperFunction,ComponentPad*%
%ADD13C,1.524000*%
%TD*%
%TA.AperFunction,ComponentPad*%
%ADD14C,1.800000*%
%TD*%
%TA.AperFunction,ComponentPad*%
%ADD15R,1.800000X1.800000*%
%TD*%
%TA.AperFunction,ComponentPad*%
%ADD16R,1.900000X1.900000*%
%TD*%
%TA.AperFunction,ComponentPad*%
%ADD17C,1.900000*%
%TD*%
%TA.AperFunction,ComponentPad*%
%ADD18O,1.500000X1.000000*%
%TD*%
%TA.AperFunction,ComponentPad*%
%ADD19R,1.500000X1.000000*%
%TD*%
%TA.AperFunction,ComponentPad*%
%ADD20R,2.170000X2.170000*%
%TD*%
%TA.AperFunction,ComponentPad*%
%ADD21C,2.500000*%
%TD*%
%TA.AperFunction,ViaPad*%
%ADD22C,0.762000*%
%TD*%
%TA.AperFunction,Conductor*%
%ADD23C,0.762000*%
%TD*%
%TA.AperFunction,Conductor*%
%ADD24C,0.254000*%
%TD*%
G04 APERTURE END LIST*
D10*
%TO.P,R2,1*%
%TO.N,Net-(U1-DIS)*%
X163576000Y-108102400D03*
D11*
%TO.P,R2,2*%
%TO.N,Net-(U1-THRESH)*%
X163576000Y-100482400D03*
%TD*%
D12*
%TO.P,C1,1*%
%TO.N,Net-(U1-THRESH)*%
X166116000Y-120059700D03*
D10*
%TO.P,C1,2*%
%TO.N,GND*%
X166116000Y-122059700D03*
%TD*%
D13*
%TO.P,U1,1,GND*%
%TO.N,GND*%
X153416000Y-124345700D03*
%TO.P,U1,2,~{TRIG}*%
%TO.N,Net-(U1-THRESH)*%
X155956000Y-124345700D03*
%TO.P,U1,3,OUT*%
%TO.N,Net-(U1-OUT)*%
X158496000Y-124345700D03*
%TO.P,U1,4,~{RST}*%
%TO.N,VCC*%
X161036000Y-124345700D03*
%TO.P,U1,5,CV*%
%TO.N,unconnected-(U1-CV-Pad5)*%
X161036000Y-116725700D03*
%TO.P,U1,6,THRESH*%
%TO.N,Net-(U1-THRESH)*%
X158496000Y-116725700D03*
%TO.P,U1,7,DIS*%
%TO.N,Net-(U1-DIS)*%
X155956000Y-116725700D03*
%TO.P,U1,8,VDD*%
%TO.N,VCC*%
X153416000Y-116725700D03*
%TD*%
D14*
%TO.P,D1,2,A*%
%TO.N,Net-(D1-A)*%
X147878800Y-74803000D03*
D15*
%TO.P,D1,1,K*%
%TO.N,Net-(D1-K)*%
X147878800Y-77343000D03*
%TD*%
D11*
%TO.P,R1,2*%
%TO.N,Net-(U1-DIS)*%
X159766000Y-108089700D03*
D10*
%TO.P,R1,1*%
%TO.N,VCC*%
X159766000Y-100469700D03*
%TD*%
%TO.P,C2,2*%
%TO.N,GND*%
X174710400Y-122437400D03*
D12*
%TO.P,C2,1*%
%TO.N,Net-(C2-Pad1)*%
X174710400Y-119937400D03*
%TD*%
D11*
%TO.P,R7,2*%
%TO.N,Net-(D2-A)*%
X171196000Y-100469700D03*
D10*
%TO.P,R7,1*%
%TO.N,VCC*%
X171196000Y-108089700D03*
%TD*%
D11*
%TO.P,R3,2*%
%TO.N,Net-(C2-Pad1)*%
X175056800Y-108077000D03*
D10*
%TO.P,R3,1*%
%TO.N,Net-(U1-OUT)*%
X175056800Y-100457000D03*
%TD*%
D15*
%TO.P,D2,1,K*%
%TO.N,Net-(D1-K)*%
X159740600Y-77444600D03*
D14*
%TO.P,D2,2,A*%
%TO.N,Net-(D2-A)*%
X159740600Y-74904600D03*
%TD*%
D16*
%TO.P,S1,1*%
%TO.N,Net-(BAT1-PadPos)*%
X154686000Y-103089700D03*
D17*
%TO.P,S1,2*%
%TO.N,VCC*%
X154686000Y-105589700D03*
%TO.P,S1,3*%
%TO.N,unconnected-(S1-Pad3)*%
X154686000Y-108089700D03*
%TD*%
D11*
%TO.P,R4,2*%
%TO.N,GND*%
X178790600Y-108077000D03*
D10*
%TO.P,R4,1*%
%TO.N,Net-(C2-Pad1)*%
X178790600Y-100457000D03*
%TD*%
D18*
%TO.P,Q1,3,C*%
%TO.N,Net-(D1-K)*%
X167106600Y-111683800D03*
%TO.P,Q1,2,B*%
%TO.N,Net-(Q1-B)*%
X167106600Y-112953800D03*
D19*
%TO.P,Q1,1,E*%
%TO.N,GND*%
X167106600Y-114223800D03*
%TD*%
D10*
%TO.P,R6,1*%
%TO.N,VCC*%
X167386000Y-108089700D03*
D11*
%TO.P,R6,2*%
%TO.N,Net-(D1-A)*%
X167386000Y-100469700D03*
%TD*%
%TO.P,R5,2*%
%TO.N,Net-(Q1-B)*%
X171170600Y-112979200D03*
D10*
%TO.P,R5,1*%
%TO.N,Net-(C2-Pad1)*%
X178790600Y-112979200D03*
%TD*%
D20*
%TO.P,BAT1,Neg*%
%TO.N,GND*%
X139446000Y-120789700D03*
D21*
%TO.P,BAT1,Pos*%
%TO.N,Net-(BAT1-PadPos)*%
X139446000Y-100789700D03*
%TD*%
D22*
%TO.N,Net-(D1-K)*%
X169316400Y-108762800D03*
%TD*%
D23*
%TO.N,VCC*%
X167386000Y-105716700D02*
X167386000Y-108089700D01*
X167513000Y-105589700D02*
X167386000Y-105716700D01*
X167513000Y-105589700D02*
X168696000Y-105589700D01*
X160020000Y-105589700D02*
X167513000Y-105589700D01*
D24*
%TO.N,Net-(D1-K)*%
X169316400Y-108762800D02*
X169316400Y-109474000D01*
X169316400Y-109474000D02*
X167106600Y-111683800D01*
%TO.N,Net-(Q1-B)*%
X167132000Y-112979200D02*
X167106600Y-112953800D01*
X171170600Y-112979200D02*
X167132000Y-112979200D01*
%TO.N,Net-(U1-THRESH)*%
X158496000Y-118250200D02*
X158496000Y-116725700D01*
X160305500Y-120059700D02*
X158496000Y-118250200D01*
X160305500Y-120059700D02*
X166116000Y-120059700D01*
%TO.N,Net-(C2-Pad1)*%
X178790600Y-102336600D02*
X178790600Y-100457000D01*
X175056800Y-106121200D02*
X178816000Y-102362000D01*
X178816000Y-102362000D02*
X178790600Y-102336600D01*
X175056800Y-108077000D02*
X175056800Y-106121200D01*
X178790600Y-111810800D02*
X175056800Y-108077000D01*
X178790600Y-112979200D02*
X178790600Y-111810800D01*
X174710400Y-118507200D02*
X178790600Y-114427000D01*
X174710400Y-119937400D02*
X174710400Y-118507200D01*
X178790600Y-114427000D02*
X178790600Y-112979200D01*
%TO.N,Net-(U1-DIS)*%
X163563300Y-108089700D02*
X163576000Y-108102400D01*
X159766000Y-108089700D02*
X163563300Y-108089700D01*
X155956000Y-115062000D02*
X159766000Y-111252000D01*
X159766000Y-111252000D02*
X159766000Y-108089700D01*
X155956000Y-116725700D02*
X155956000Y-115062000D01*
D23*
%TO.N,VCC*%
X153416000Y-116725700D02*
X161036000Y-124345700D01*
X151638000Y-107188000D02*
X151638000Y-114947700D01*
X153236300Y-105589700D02*
X151638000Y-107188000D01*
X151638000Y-114947700D02*
X153416000Y-116725700D01*
X154686000Y-105589700D02*
X153236300Y-105589700D01*
X159766000Y-100469700D02*
X159766000Y-105335700D01*
X159766000Y-105335700D02*
X160020000Y-105589700D01*
X154686000Y-105589700D02*
X160020000Y-105589700D01*
X168696000Y-105589700D02*
X171196000Y-108089700D01*
%TO.N,Net-(BAT1-PadPos)*%
X152386000Y-100789700D02*
X154686000Y-103089700D01*
X139446000Y-100789700D02*
X152386000Y-100789700D01*
%TD*%
%TA.AperFunction,Conductor*%
%TO.N,GND*%
G36*
X180916621Y-41295502D02*
G01*
X180963114Y-41349158D01*
X180974500Y-41401500D01*
X180974500Y-126873500D01*
X180954498Y-126941621D01*
X180900842Y-126988114D01*
X180848500Y-126999500D01*
X127126500Y-126999500D01*
X127058379Y-126979498D01*
X127011886Y-126925842D01*
X127000500Y-126873500D01*
X127000500Y-124345699D01*
X152141149Y-124345699D01*
X152160517Y-124567074D01*
X152218031Y-124781723D01*
X152218033Y-124781727D01*
X152311946Y-124983125D01*
X152356184Y-125046303D01*
X152356185Y-125046303D01*
X153031607Y-124370881D01*
X153031051Y-124377598D01*
X153062266Y-124500862D01*
X153131813Y-124607312D01*
X153232157Y-124685413D01*
X153352422Y-124726700D01*
X153394210Y-124726700D01*
X152715395Y-125405513D01*
X152715395Y-125405514D01*
X152778575Y-125449753D01*
X152778574Y-125449753D01*
X152979972Y-125543666D01*
X152979976Y-125543668D01*
X153194625Y-125601182D01*
X153415999Y-125620550D01*
X153637374Y-125601182D01*
X153852023Y-125543668D01*
X153852027Y-125543666D01*
X154053425Y-125449753D01*
X154053426Y-125449752D01*
X154116603Y-125405514D01*
X154116603Y-125405512D01*
X153437791Y-124726700D01*
X153447569Y-124726700D01*
X153541421Y-124711039D01*
X153653251Y-124650520D01*
X153739371Y-124556969D01*
X153790448Y-124440523D01*
X153796538Y-124367029D01*
X154475812Y-125046303D01*
X154475814Y-125046303D01*
X154520052Y-124983126D01*
X154520053Y-124983125D01*
X154613966Y-124781727D01*
X154613968Y-124781723D01*
X154671482Y-124567074D01*
X154687408Y-124385046D01*
X154702828Y-124345626D01*
X154923016Y-124345626D01*
X154936459Y-124371202D01*
X154938322Y-124383678D01*
X154954206Y-124544961D01*
X154954206Y-124544963D01*
X155012332Y-124736577D01*
X155012334Y-124736583D01*
X155106720Y-124913166D01*
X155106722Y-124913169D01*
X155233748Y-125067952D01*
X155388531Y-125194978D01*
X155565120Y-125289367D01*
X155756731Y-125347492D01*
X155756735Y-125347492D01*
X155756737Y-125347493D01*
X155955997Y-125367118D01*
X155956000Y-125367118D01*
X155956003Y-125367118D01*
X156155261Y-125347493D01*
X156155263Y-125347493D01*
X156155264Y-125347492D01*
X156155269Y-125347492D01*
X156346880Y-125289367D01*
X156523469Y-125194978D01*
X156678252Y-125067952D01*
X156805278Y-124913169D01*
X156899667Y-124736580D01*
X156957792Y-124544969D01*
X156973678Y-124383678D01*
X156977418Y-124345703D01*
X156977418Y-124345696D01*
X156957793Y-124146438D01*
X156957793Y-124146436D01*
X156957792Y-124146433D01*
X156957792Y-124146431D01*
X156899667Y-123954820D01*
X156805278Y-123778231D01*
X156678252Y-123623448D01*
X156523469Y-123496422D01*
X156523467Y-123496421D01*
X156523466Y-123496420D01*
X156346883Y-123402034D01*
X156346877Y-123402032D01*
X156250166Y-123372695D01*
X156155269Y-123343908D01*
X156155268Y-123343907D01*
X156155262Y-123343906D01*
X155956003Y-123324282D01*
X155955997Y-123324282D01*
X155756738Y-123343906D01*
X155756736Y-123343906D01*
X155565122Y-123402032D01*
X155565116Y-123402034D01*
X155388533Y-123496420D01*
X155233748Y-123623448D01*
X155106720Y-123778233D01*
X155012334Y-123954816D01*
X155012332Y-123954822D01*
X154954206Y-124146436D01*
X154954206Y-124146438D01*
X154938322Y-124307721D01*
X154923016Y-124345626D01*
X154702828Y-124345626D01*
X154702833Y-124345613D01*
X154689136Y-124318849D01*
X154687408Y-124306353D01*
X154671482Y-124124325D01*
X154613968Y-123909676D01*
X154613966Y-123909672D01*
X154520051Y-123708271D01*
X154475815Y-123645095D01*
X154475813Y-123645095D01*
X153800392Y-124320516D01*
X153800949Y-124313802D01*
X153769734Y-124190538D01*
X153700187Y-124084088D01*
X153599843Y-124005987D01*
X153479578Y-123964700D01*
X153437790Y-123964700D01*
X154116603Y-123285885D01*
X154116603Y-123285884D01*
X154053425Y-123241646D01*
X153852027Y-123147733D01*
X153852023Y-123147731D01*
X153637374Y-123090217D01*
X153415999Y-123070849D01*
X153194625Y-123090217D01*
X152979976Y-123147731D01*
X152979972Y-123147733D01*
X152778575Y-123241646D01*
X152715394Y-123285885D01*
X153394209Y-123964700D01*
X153384431Y-123964700D01*
X153290579Y-123980361D01*
X153178749Y-124040880D01*
X153092629Y-124134431D01*
X153041552Y-124250877D01*
X153035461Y-124324369D01*
X152356185Y-123645094D01*
X152311946Y-123708275D01*
X152218033Y-123909672D01*
X152218031Y-123909676D01*
X152160517Y-124124325D01*
X152141149Y-124345699D01*
X127000500Y-124345699D01*
X127000500Y-121923297D01*
X137853000Y-121923297D01*
X137859505Y-121983793D01*
X137910555Y-122120664D01*
X137910555Y-122120665D01*
X137998095Y-122237604D01*
X138115034Y-122325144D01*
X138251906Y-122376194D01*
X138312402Y-122382699D01*
X138312415Y-122382700D01*
X139192000Y-122382700D01*
X139192000Y-121317689D01*
X139293284Y-121359643D01*
X139407656Y-121374700D01*
X139484344Y-121374700D01*
X139598716Y-121359643D01*
X139700000Y-121317689D01*
X139700000Y-122382700D01*
X140579585Y-122382700D01*
X140579597Y-122382699D01*
X140640093Y-122376194D01*
X140776964Y-122325144D01*
X140776965Y-122325144D01*
X140893904Y-122237604D01*
X140981444Y-122120665D01*
X140981444Y-122120664D01*
X141032494Y-121983793D01*
X141038999Y-121923297D01*
X141039000Y-121923285D01*
X141039000Y-121043700D01*
X139973990Y-121043700D01*
X140015943Y-120942416D01*
X140036048Y-120789700D01*
X140015943Y-120636984D01*
X139973990Y-120535700D01*
X141039000Y-120535700D01*
X141039000Y-119656114D01*
X141038999Y-119656102D01*
X141032494Y-119595606D01*
X140981444Y-119458735D01*
X140981444Y-119458734D01*
X140893904Y-119341795D01*
X140776965Y-119254255D01*
X140640093Y-119203205D01*
X140579597Y-119196700D01*
X139700000Y-119196700D01*
X139700000Y-120261710D01*
X139598716Y-120219757D01*
X139484344Y-120204700D01*
X139407656Y-120204700D01*
X139293284Y-120219757D01*
X139192000Y-120261710D01*
X139192000Y-119196700D01*
X138312402Y-119196700D01*
X138251906Y-119203205D01*
X138115035Y-119254255D01*
X138115034Y-119254255D01*
X137998095Y-119341795D01*
X137910555Y-119458734D01*
X137910555Y-119458735D01*
X137859505Y-119595606D01*
X137853000Y-119656102D01*
X137853000Y-120535700D01*
X138918010Y-120535700D01*
X138876057Y-120636984D01*
X138855952Y-120789700D01*
X138876057Y-120942416D01*
X138918010Y-121043700D01*
X137853000Y-121043700D01*
X137853000Y-121923297D01*
X127000500Y-121923297D01*
X127000500Y-100789699D01*
X137936848Y-100789699D01*
X137955428Y-101025782D01*
X138010711Y-101256054D01*
X138101335Y-101474839D01*
X138225071Y-101676758D01*
X138225072Y-101676760D01*
X138378867Y-101856832D01*
X138558939Y-102010627D01*
X138558943Y-102010630D01*
X138760859Y-102134364D01*
X138979646Y-102224989D01*
X139209917Y-102280272D01*
X139446000Y-102298852D01*
X139682083Y-102280272D01*
X139912354Y-102224989D01*
X140131141Y-102134364D01*
X140333057Y-102010630D01*
X140513132Y-101856832D01*
X140666930Y-101676757D01*
X140784214Y-101485365D01*
X140836862Y-101437734D01*
X140891647Y-101425200D01*
X152070578Y-101425200D01*
X152138699Y-101445202D01*
X152159673Y-101462105D01*
X153444595Y-102747027D01*
X153478621Y-102809339D01*
X153481500Y-102836122D01*
X153481500Y-104064763D01*
X153481501Y-104064773D01*
X153496265Y-104139000D01*
X153552516Y-104223184D01*
X153636697Y-104279433D01*
X153636699Y-104279434D01*
X153710933Y-104294200D01*
X154047419Y-104294199D01*
X154115537Y-104314201D01*
X154162030Y-104367856D01*
X154172135Y-104438130D01*
X154142642Y-104502711D01*
X154113748Y-104527326D01*
X153957015Y-104624370D01*
X153792049Y-104774756D01*
X153715032Y-104876745D01*
X153700250Y-104896321D01*
X153694352Y-104904131D01*
X153637338Y-104946439D01*
X153593801Y-104954200D01*
X153320375Y-104954200D01*
X153304502Y-104952447D01*
X153304475Y-104952737D01*
X153296582Y-104951990D01*
X153227281Y-104954169D01*
X153225302Y-104954200D01*
X153196314Y-104954200D01*
X153189333Y-104955081D01*
X153183420Y-104955547D01*
X153136097Y-104957034D01*
X153136091Y-104957035D01*
X153116543Y-104962714D01*
X153097193Y-104966721D01*
X153077007Y-104969271D01*
X153076994Y-104969274D01*
X153032986Y-104986699D01*
X153027368Y-104988623D01*
X152981911Y-105001829D01*
X152981906Y-105001831D01*
X152964380Y-105012195D01*
X152946639Y-105020886D01*
X152927711Y-105028381D01*
X152889410Y-105056207D01*
X152884449Y-105059466D01*
X152843702Y-105083565D01*
X152829305Y-105097961D01*
X152814278Y-105110794D01*
X152812530Y-105112065D01*
X152797813Y-105122758D01*
X152767628Y-105159243D01*
X152763632Y-105163634D01*
X151248077Y-106679188D01*
X151235616Y-106689173D01*
X151235801Y-106689397D01*
X151229700Y-106694443D01*
X151182251Y-106744970D01*
X151180877Y-106746388D01*
X151160359Y-106766907D01*
X151160353Y-106766914D01*
X151156032Y-106772483D01*
X151152185Y-106776987D01*
X151119785Y-106811490D01*
X151119784Y-106811492D01*
X151109976Y-106829332D01*
X151099124Y-106845850D01*
X151086654Y-106861925D01*
X151086650Y-106861932D01*
X151067843Y-106905388D01*
X151065233Y-106910716D01*
X151042433Y-106952191D01*
X151042430Y-106952199D01*
X151037370Y-106971907D01*
X151030968Y-106990607D01*
X151022882Y-107009293D01*
X151022881Y-107009297D01*
X151015476Y-107056051D01*
X151014272Y-107061865D01*
X151002500Y-107107717D01*
X151002500Y-107128065D01*
X151000949Y-107147775D01*
X150997765Y-107167878D01*
X150997765Y-107167879D01*
X151002220Y-107215010D01*
X151002500Y-107220943D01*
X151002500Y-114863631D01*
X151000748Y-114879501D01*
X151001038Y-114879529D01*
X151000292Y-114887420D01*
X151002469Y-114956701D01*
X151002500Y-114958679D01*
X151002500Y-114987683D01*
X151002500Y-114987686D01*
X151002499Y-114987686D01*
X151003382Y-114994677D01*
X151003847Y-115000585D01*
X151005334Y-115047902D01*
X151005335Y-115047907D01*
X151011014Y-115067456D01*
X151015021Y-115086807D01*
X151017572Y-115106995D01*
X151017572Y-115106997D01*
X151034998Y-115151013D01*
X151036921Y-115156629D01*
X151050129Y-115202090D01*
X151050131Y-115202095D01*
X151060492Y-115219614D01*
X151069189Y-115237366D01*
X151076681Y-115256288D01*
X151104510Y-115294592D01*
X151107764Y-115299545D01*
X151116533Y-115314372D01*
X151131865Y-115340298D01*
X151146250Y-115354683D01*
X151159090Y-115369716D01*
X151171054Y-115386183D01*
X151171057Y-115386186D01*
X151207542Y-115416369D01*
X151211923Y-115420355D01*
X152126383Y-116334816D01*
X152363442Y-116571875D01*
X152397468Y-116634187D01*
X152399740Y-116673318D01*
X152394582Y-116725695D01*
X152394582Y-116725703D01*
X152414206Y-116924961D01*
X152414206Y-116924963D01*
X152472332Y-117116577D01*
X152472334Y-117116583D01*
X152566720Y-117293166D01*
X152566722Y-117293169D01*
X152693748Y-117447952D01*
X152848531Y-117574978D01*
X153025120Y-117669367D01*
X153216731Y-117727492D01*
X153216735Y-117727492D01*
X153216737Y-117727493D01*
X153415997Y-117747118D01*
X153416000Y-117747118D01*
X153416002Y-117747118D01*
X153444056Y-117744354D01*
X153468379Y-117741959D01*
X153538133Y-117755187D01*
X153569825Y-117778257D01*
X158971468Y-123179900D01*
X159005494Y-123242212D01*
X159000429Y-123313027D01*
X158957882Y-123369863D01*
X158891362Y-123394674D01*
X158845798Y-123389570D01*
X158695266Y-123343907D01*
X158695261Y-123343906D01*
X158496003Y-123324282D01*
X158495997Y-123324282D01*
X158296738Y-123343906D01*
X158296736Y-123343906D01*
X158105122Y-123402032D01*
X158105116Y-123402034D01*
X157928533Y-123496420D01*
X157773748Y-123623448D01*
X157646720Y-123778233D01*
X157552334Y-123954816D01*
X157552332Y-123954822D01*
X157494206Y-124146436D01*
X157494206Y-124146438D01*
X157474582Y-124345696D01*
X157474582Y-124345703D01*
X157494206Y-124544961D01*
X157494206Y-124544963D01*
X157552332Y-124736577D01*
X157552334Y-124736583D01*
X157646720Y-124913166D01*
X157646722Y-124913169D01*
X157773748Y-125067952D01*
X157928531Y-125194978D01*
X158105120Y-125289367D01*
X158296731Y-125347492D01*
X158296735Y-125347492D01*
X158296737Y-125347493D01*
X158495997Y-125367118D01*
X158496000Y-125367118D01*
X158496003Y-125367118D01*
X158695261Y-125347493D01*
X158695263Y-125347493D01*
X158695264Y-125347492D01*
X158695269Y-125347492D01*
X158886880Y-125289367D01*
X159063469Y-125194978D01*
X159218252Y-125067952D01*
X159345278Y-124913169D01*
X159439667Y-124736580D01*
X159497792Y-124544969D01*
X159513678Y-124383678D01*
X159517418Y-124345703D01*
X159517418Y-124345696D01*
X159497793Y-124146438D01*
X159497793Y-124146436D01*
X159497792Y-124146433D01*
X159497792Y-124146431D01*
X159452128Y-123995901D01*
X159451496Y-123924908D01*
X159489345Y-123864842D01*
X159553660Y-123834773D01*
X159624021Y-123844250D01*
X159661799Y-123870231D01*
X159983442Y-124191874D01*
X160017468Y-124254186D01*
X160019740Y-124293317D01*
X160014582Y-124345695D01*
X160014582Y-124345703D01*
X160034206Y-124544961D01*
X160034206Y-124544963D01*
X160092332Y-124736577D01*
X160092334Y-124736583D01*
X160186720Y-124913166D01*
X160186722Y-124913169D01*
X160313748Y-125067952D01*
X160468531Y-125194978D01*
X160645120Y-125289367D01*
X160836731Y-125347492D01*
X160836735Y-125347492D01*
X160836737Y-125347493D01*
X161035997Y-125367118D01*
X161036000Y-125367118D01*
X161036003Y-125367118D01*
X161235261Y-125347493D01*
X161235263Y-125347493D01*
X161235264Y-125347492D01*
X161235269Y-125347492D01*
X161426880Y-125289367D01*
X161603469Y-125194978D01*
X161758252Y-125067952D01*
X161885278Y-124913169D01*
X161979667Y-124736580D01*
X162037792Y-124544969D01*
X162053678Y-124383678D01*
X162057418Y-124345703D01*
X162057418Y-124345696D01*
X162037793Y-124146438D01*
X162037793Y-124146436D01*
X162037792Y-124146433D01*
X162037792Y-124146431D01*
X161979667Y-123954820D01*
X161885278Y-123778231D01*
X161758252Y-123623448D01*
X161603469Y-123496422D01*
X161603467Y-123496421D01*
X161603466Y-123496420D01*
X161426883Y-123402034D01*
X161426877Y-123402032D01*
X161330166Y-123372695D01*
X161235269Y-123343908D01*
X161235268Y-123343907D01*
X161235262Y-123343906D01*
X161036003Y-123324282D01*
X161035995Y-123324282D01*
X160983618Y-123329440D01*
X160913865Y-123316211D01*
X160882175Y-123293142D01*
X155480532Y-117891499D01*
X155446506Y-117829187D01*
X155451571Y-117758372D01*
X155494118Y-117701536D01*
X155560638Y-117676725D01*
X155606203Y-117681830D01*
X155756727Y-117727491D01*
X155756728Y-117727491D01*
X155756731Y-117727492D01*
X155756734Y-117727492D01*
X155756738Y-117727493D01*
X155955997Y-117747118D01*
X155956000Y-117747118D01*
X155956003Y-117747118D01*
X156155261Y-117727493D01*
X156155263Y-117727493D01*
X156155264Y-117727492D01*
X156155269Y-117727492D01*
X156346880Y-117669367D01*
X156523469Y-117574978D01*
X156678252Y-117447952D01*
X156805278Y-117293169D01*
X156899667Y-117116580D01*
X156957792Y-116924969D01*
X156968405Y-116817212D01*
X156977418Y-116725703D01*
X157474582Y-116725703D01*
X157494206Y-116924961D01*
X157494206Y-116924963D01*
X157552332Y-117116577D01*
X157552334Y-117116583D01*
X157646720Y-117293166D01*
X157646722Y-117293169D01*
X157773748Y-117447952D01*
X157928531Y-117574978D01*
X157928533Y-117574979D01*
X158047896Y-117638780D01*
X158098544Y-117688532D01*
X158114500Y-117749902D01*
X158114500Y-118197566D01*
X158111818Y-118223423D01*
X158109554Y-118234216D01*
X158112044Y-118254185D01*
X158114016Y-118270009D01*
X158114500Y-118277800D01*
X158114500Y-118281813D01*
X158118189Y-118303924D01*
X158118564Y-118306499D01*
X158125303Y-118360557D01*
X158127588Y-118368232D01*
X158130180Y-118375781D01*
X158130181Y-118375784D01*
X158130182Y-118375786D01*
X158145023Y-118403211D01*
X158156111Y-118423700D01*
X158157303Y-118426015D01*
X158181223Y-118474946D01*
X158185868Y-118481451D01*
X158190778Y-118487760D01*
X158190780Y-118487762D01*
X158230886Y-118524682D01*
X158232742Y-118526464D01*
X159998516Y-120292238D01*
X160014902Y-120312415D01*
X160020937Y-120321652D01*
X160020940Y-120321656D01*
X160048937Y-120343447D01*
X160049400Y-120343807D01*
X160055257Y-120348980D01*
X160058084Y-120351807D01*
X160058093Y-120351815D01*
X160076334Y-120364838D01*
X160078406Y-120366382D01*
X160121415Y-120399858D01*
X160121419Y-120399859D01*
X160128455Y-120403668D01*
X160135627Y-120407173D01*
X160135630Y-120407175D01*
X160187847Y-120422720D01*
X160190294Y-120423503D01*
X160241839Y-120441200D01*
X160241844Y-120441200D01*
X160249750Y-120442519D01*
X160257656Y-120443505D01*
X160257657Y-120443504D01*
X160257658Y-120443505D01*
X160312084Y-120441253D01*
X160314678Y-120441200D01*
X164935501Y-120441200D01*
X165003622Y-120461202D01*
X165050115Y-120514858D01*
X165061501Y-120567200D01*
X165061501Y-120884772D01*
X165076265Y-120958999D01*
X165076265Y-120959000D01*
X165076266Y-120959001D01*
X165132516Y-121043184D01*
X165132518Y-121043185D01*
X165135232Y-121047247D01*
X165156447Y-121115000D01*
X165137665Y-121183467D01*
X165119566Y-121206342D01*
X165110187Y-121215721D01*
X165110186Y-121215721D01*
X164978912Y-121403201D01*
X164882188Y-121610626D01*
X164882186Y-121610631D01*
X164822951Y-121831697D01*
X164803004Y-122059700D01*
X164822951Y-122287702D01*
X164882186Y-122508768D01*
X164882188Y-122508773D01*
X164978913Y-122716201D01*
X165028898Y-122787588D01*
X165028900Y-122787588D01*
X165717272Y-122099216D01*
X165730835Y-122184848D01*
X165788359Y-122297745D01*
X165877955Y-122387341D01*
X165990852Y-122444865D01*
X166076482Y-122458427D01*
X165388110Y-123146798D01*
X165388110Y-123146800D01*
X165459498Y-123196786D01*
X165666926Y-123293511D01*
X165666931Y-123293513D01*
X165887999Y-123352748D01*
X165887995Y-123352748D01*
X166116000Y-123372695D01*
X166344002Y-123352748D01*
X166565068Y-123293513D01*
X166565073Y-123293511D01*
X166772497Y-123196788D01*
X166843888Y-123146799D01*
X166843888Y-123146797D01*
X166155518Y-122458427D01*
X166241148Y-122444865D01*
X166354045Y-122387341D01*
X166443641Y-122297745D01*
X166501165Y-122184848D01*
X166514727Y-122099218D01*
X167203097Y-122787588D01*
X167203099Y-122787588D01*
X167253088Y-122716197D01*
X167349811Y-122508773D01*
X167349813Y-122508768D01*
X167368936Y-122437400D01*
X173397404Y-122437400D01*
X173417351Y-122665402D01*
X173476586Y-122886468D01*
X173476588Y-122886473D01*
X173573313Y-123093901D01*
X173623299Y-123165288D01*
X174311672Y-122476916D01*
X174325235Y-122562548D01*
X174382759Y-122675445D01*
X174472355Y-122765041D01*
X174585252Y-122822565D01*
X174670882Y-122836127D01*
X173982510Y-123524498D01*
X173982510Y-123524500D01*
X174053898Y-123574486D01*
X174261326Y-123671211D01*
X174261331Y-123671213D01*
X174482399Y-123730448D01*
X174482395Y-123730448D01*
X174710400Y-123750395D01*
X174938402Y-123730448D01*
X175159468Y-123671213D01*
X175159473Y-123671211D01*
X175366897Y-123574488D01*
X175438288Y-123524499D01*
X175438288Y-123524497D01*
X174749918Y-122836127D01*
X174835548Y-122822565D01*
X174948445Y-122765041D01*
X175038041Y-122675445D01*
X175095565Y-122562548D01*
X175109127Y-122476917D01*
X175797497Y-123165288D01*
X175797499Y-123165288D01*
X175847488Y-123093897D01*
X175944211Y-122886473D01*
X175944213Y-122886468D01*
X176003448Y-122665402D01*
X176023395Y-122437400D01*
X176003448Y-122209397D01*
X175944213Y-121988331D01*
X175944211Y-121988326D01*
X175847486Y-121780898D01*
X175797500Y-121709510D01*
X175797498Y-121709510D01*
X175109127Y-122397881D01*
X175095565Y-122312252D01*
X175038041Y-122199355D01*
X174948445Y-122109759D01*
X174835548Y-122052235D01*
X174749917Y-122038672D01*
X175438288Y-121350299D01*
X175438288Y-121350298D01*
X175366901Y-121300313D01*
X175220604Y-121232094D01*
X175167319Y-121185177D01*
X175147858Y-121116899D01*
X175168400Y-121048940D01*
X175222423Y-121002874D01*
X175273853Y-120991899D01*
X175535466Y-120991899D01*
X175535469Y-120991898D01*
X175535473Y-120991898D01*
X175584726Y-120982101D01*
X175609701Y-120977134D01*
X175693884Y-120920884D01*
X175750134Y-120836701D01*
X175764900Y-120762467D01*
X175764899Y-119112334D01*
X175764898Y-119112330D01*
X175764898Y-119112326D01*
X175750134Y-119038099D01*
X175693883Y-118953915D01*
X175609702Y-118897666D01*
X175535469Y-118882900D01*
X175535467Y-118882900D01*
X175217900Y-118882900D01*
X175149779Y-118862898D01*
X175103286Y-118809242D01*
X175091900Y-118756900D01*
X175091900Y-118717411D01*
X175111902Y-118649290D01*
X175128800Y-118628321D01*
X179023142Y-114733978D01*
X179043318Y-114717594D01*
X179052556Y-114711560D01*
X179074714Y-114683089D01*
X179079882Y-114677238D01*
X179082713Y-114674409D01*
X179095757Y-114656137D01*
X179097286Y-114654088D01*
X179130758Y-114611085D01*
X179130759Y-114611079D01*
X179134557Y-114604064D01*
X179138070Y-114596876D01*
X179138075Y-114596870D01*
X179153630Y-114544618D01*
X179154402Y-114542208D01*
X179172100Y-114490661D01*
X179172100Y-114490655D01*
X179173419Y-114482749D01*
X179174405Y-114474843D01*
X179172154Y-114420426D01*
X179172100Y-114417821D01*
X179172100Y-114046489D01*
X179192102Y-113978368D01*
X179238702Y-113935368D01*
X179379283Y-113860227D01*
X179539852Y-113728452D01*
X179671627Y-113567883D01*
X179769545Y-113384692D01*
X179829842Y-113185918D01*
X179848354Y-112997969D01*
X179850202Y-112979203D01*
X179850202Y-112979196D01*
X179829843Y-112772488D01*
X179829842Y-112772486D01*
X179829842Y-112772482D01*
X179769545Y-112573708D01*
X179671627Y-112390517D01*
X179671625Y-112390513D01*
X179539852Y-112229947D01*
X179379288Y-112098176D01*
X179379284Y-112098173D01*
X179379283Y-112098173D01*
X179238703Y-112023031D01*
X179188055Y-111973278D01*
X179172100Y-111911909D01*
X179172100Y-111863434D01*
X179174782Y-111837574D01*
X179177045Y-111826784D01*
X179172583Y-111790990D01*
X179172100Y-111783200D01*
X179172100Y-111779194D01*
X179172100Y-111779189D01*
X179168407Y-111757068D01*
X179168034Y-111754502D01*
X179161295Y-111700435D01*
X179159014Y-111692775D01*
X179156419Y-111685217D01*
X179156418Y-111685215D01*
X179156418Y-111685214D01*
X179130486Y-111637296D01*
X179129309Y-111635009D01*
X179105377Y-111586054D01*
X179105375Y-111586052D01*
X179100747Y-111579568D01*
X179095820Y-111573238D01*
X179055735Y-111536337D01*
X179053880Y-111534557D01*
X176081249Y-108561926D01*
X176047224Y-108499615D01*
X176049770Y-108436257D01*
X176096042Y-108283718D01*
X176107811Y-108164233D01*
X176116402Y-108077003D01*
X176116402Y-108076996D01*
X176096043Y-107870288D01*
X176096042Y-107870286D01*
X176096042Y-107870282D01*
X176081699Y-107823000D01*
X177504517Y-107823000D01*
X178478914Y-107823000D01*
X178462959Y-107838955D01*
X178405435Y-107951852D01*
X178385614Y-108077000D01*
X178405435Y-108202148D01*
X178462959Y-108315045D01*
X178478914Y-108331000D01*
X177504518Y-108331000D01*
X177556786Y-108526068D01*
X177556788Y-108526073D01*
X177653512Y-108733498D01*
X177784784Y-108920974D01*
X177784789Y-108920980D01*
X177946619Y-109082810D01*
X177946625Y-109082815D01*
X178134101Y-109214087D01*
X178341526Y-109310811D01*
X178341531Y-109310813D01*
X178536600Y-109363081D01*
X178536600Y-108388686D01*
X178552555Y-108404641D01*
X178665452Y-108462165D01*
X178759119Y-108477000D01*
X178822081Y-108477000D01*
X178915748Y-108462165D01*
X179028645Y-108404641D01*
X179044600Y-108388685D01*
X179044600Y-109363081D01*
X179239668Y-109310813D01*
X179239673Y-109310811D01*
X179447098Y-109214087D01*
X179634574Y-109082815D01*
X179634580Y-109082810D01*
X179796410Y-108920980D01*
X179796415Y-108920974D01*
X179927687Y-108733498D01*
X180024411Y-108526073D01*
X180024413Y-108526068D01*
X180076682Y-108331000D01*
X179102286Y-108331000D01*
X179118241Y-108315045D01*
X179175765Y-108202148D01*
X179195586Y-108077000D01*
X179175765Y-107951852D01*
X179118241Y-107838955D01*
X179102286Y-107823000D01*
X180076682Y-107823000D01*
X180024413Y-107627931D01*
X180024411Y-107627926D01*
X179927687Y-107420501D01*
X179796415Y-107233025D01*
X179796410Y-107233019D01*
X179634580Y-107071189D01*
X179634574Y-107071184D01*
X179447098Y-106939912D01*
X179239673Y-106843188D01*
X179239671Y-106843187D01*
X179044600Y-106790917D01*
X179044600Y-107765314D01*
X179028645Y-107749359D01*
X178915748Y-107691835D01*
X178822081Y-107677000D01*
X178759119Y-107677000D01*
X178665452Y-107691835D01*
X178552555Y-107749359D01*
X178536599Y-107765314D01*
X178536599Y-106790917D01*
X178341528Y-106843187D01*
X178341526Y-106843188D01*
X178134101Y-106939912D01*
X177946625Y-107071184D01*
X177946619Y-107071189D01*
X177784789Y-107233019D01*
X177784784Y-107233025D01*
X177653512Y-107420501D01*
X177556788Y-107627926D01*
X177556786Y-107627931D01*
X177504517Y-107823000D01*
X176081699Y-107823000D01*
X176035745Y-107671508D01*
X175951404Y-107513717D01*
X175937825Y-107488313D01*
X175806052Y-107327747D01*
X175645488Y-107195976D01*
X175645484Y-107195973D01*
X175645483Y-107195973D01*
X175504903Y-107120831D01*
X175454255Y-107071078D01*
X175438300Y-107009709D01*
X175438300Y-106331412D01*
X175458302Y-106263291D01*
X175475205Y-106242317D01*
X175903302Y-105814220D01*
X179072779Y-102644742D01*
X179076587Y-102641238D01*
X179079856Y-102638468D01*
X179111142Y-102611972D01*
X179134322Y-102573067D01*
X179137150Y-102568738D01*
X179163475Y-102531869D01*
X179163587Y-102531491D01*
X179176115Y-102502931D01*
X179176316Y-102502595D01*
X179185611Y-102458263D01*
X179186886Y-102453232D01*
X179199805Y-102409841D01*
X179199788Y-102409445D01*
X179202364Y-102378367D01*
X179202445Y-102377983D01*
X179196843Y-102333050D01*
X179196415Y-102327888D01*
X179194544Y-102282628D01*
X179194543Y-102282625D01*
X179194543Y-102282624D01*
X179194399Y-102282255D01*
X179186744Y-102252025D01*
X179186696Y-102251639D01*
X179186695Y-102251637D01*
X179184902Y-102247969D01*
X179172100Y-102192632D01*
X179172100Y-101524289D01*
X179192102Y-101456168D01*
X179238702Y-101413168D01*
X179379283Y-101338027D01*
X179539852Y-101206252D01*
X179671627Y-101045683D01*
X179769545Y-100862492D01*
X179829842Y-100663718D01*
X179847701Y-100482400D01*
X179850202Y-100457003D01*
X179850202Y-100456996D01*
X179829843Y-100250288D01*
X179829842Y-100250286D01*
X179829842Y-100250282D01*
X179769545Y-100051508D01*
X179685204Y-99893717D01*
X179671625Y-99868313D01*
X179539852Y-99707747D01*
X179379286Y-99575975D01*
X179379286Y-99575974D01*
X179196092Y-99478055D01*
X179081051Y-99443158D01*
X178997318Y-99417758D01*
X178997317Y-99417757D01*
X178997311Y-99417756D01*
X178790603Y-99397398D01*
X178790597Y-99397398D01*
X178583888Y-99417756D01*
X178385107Y-99478055D01*
X178201913Y-99575974D01*
X178201913Y-99575975D01*
X178041347Y-99707747D01*
X177909575Y-99868313D01*
X177909574Y-99868313D01*
X177811655Y-100051507D01*
X177751356Y-100250288D01*
X177730998Y-100456996D01*
X177730998Y-100457003D01*
X177751356Y-100663711D01*
X177751357Y-100663717D01*
X177751358Y-100663718D01*
X177759061Y-100689111D01*
X177811655Y-100862492D01*
X177909574Y-101045686D01*
X178041347Y-101206252D01*
X178201913Y-101338024D01*
X178201917Y-101338027D01*
X178342496Y-101413168D01*
X178393144Y-101462919D01*
X178409100Y-101524289D01*
X178409100Y-102177186D01*
X178389098Y-102245307D01*
X178372195Y-102266281D01*
X174824255Y-105814220D01*
X174804082Y-105830604D01*
X174794841Y-105836641D01*
X174772696Y-105865093D01*
X174767536Y-105870938D01*
X174764689Y-105873785D01*
X174751657Y-105892039D01*
X174750102Y-105894124D01*
X174716642Y-105937113D01*
X174712830Y-105944158D01*
X174709325Y-105951327D01*
X174693778Y-106003546D01*
X174692984Y-106006024D01*
X174675299Y-106057541D01*
X174673984Y-106065418D01*
X174672994Y-106073360D01*
X174675246Y-106127773D01*
X174675300Y-106130377D01*
X174675300Y-107009709D01*
X174655298Y-107077830D01*
X174608697Y-107120831D01*
X174468111Y-107195976D01*
X174307547Y-107327747D01*
X174175775Y-107488313D01*
X174175774Y-107488313D01*
X174077855Y-107671507D01*
X174017556Y-107870288D01*
X173997198Y-108076996D01*
X173997198Y-108077003D01*
X174017556Y-108283711D01*
X174017557Y-108283717D01*
X174017558Y-108283718D01*
X174025261Y-108309111D01*
X174077855Y-108482492D01*
X174175774Y-108665686D01*
X174307547Y-108826252D01*
X174468113Y-108958024D01*
X174468113Y-108958025D01*
X174468117Y-108958027D01*
X174651308Y-109055945D01*
X174850082Y-109116242D01*
X174850086Y-109116242D01*
X174850088Y-109116243D01*
X175056797Y-109136602D01*
X175056800Y-109136602D01*
X175056803Y-109136602D01*
X175263514Y-109116243D01*
X175263516Y-109116242D01*
X175263518Y-109116242D01*
X175416057Y-109069969D01*
X175487050Y-109069336D01*
X175541727Y-109101449D01*
X178301096Y-111860818D01*
X178335122Y-111923130D01*
X178330057Y-111993945D01*
X178287510Y-112050781D01*
X178271397Y-112061035D01*
X178201913Y-112098174D01*
X178201913Y-112098175D01*
X178041347Y-112229947D01*
X177909575Y-112390513D01*
X177909574Y-112390513D01*
X177811655Y-112573707D01*
X177751356Y-112772488D01*
X177730998Y-112979196D01*
X177730998Y-112979203D01*
X177751356Y-113185911D01*
X177751357Y-113185917D01*
X177751358Y-113185918D01*
X177810445Y-113380702D01*
X177811655Y-113384692D01*
X177909574Y-113567886D01*
X178041347Y-113728452D01*
X178201913Y-113860224D01*
X178201917Y-113860227D01*
X178342496Y-113935368D01*
X178393144Y-113985119D01*
X178409100Y-114046489D01*
X178409100Y-114216786D01*
X178389098Y-114284907D01*
X178372195Y-114305881D01*
X174477855Y-118200220D01*
X174457682Y-118216604D01*
X174448441Y-118222641D01*
X174426296Y-118251093D01*
X174421136Y-118256938D01*
X174418289Y-118259785D01*
X174410997Y-118269999D01*
X174405428Y-118277800D01*
X174405257Y-118278039D01*
X174403702Y-118280124D01*
X174370242Y-118323113D01*
X174366430Y-118330158D01*
X174362925Y-118337327D01*
X174347378Y-118389546D01*
X174346584Y-118392024D01*
X174328899Y-118443541D01*
X174327584Y-118451418D01*
X174326594Y-118459360D01*
X174328846Y-118513773D01*
X174328900Y-118516377D01*
X174328900Y-118756900D01*
X174308898Y-118825021D01*
X174255242Y-118871514D01*
X174202900Y-118882900D01*
X173885336Y-118882900D01*
X173885326Y-118882901D01*
X173811099Y-118897665D01*
X173726915Y-118953916D01*
X173670666Y-119038097D01*
X173655900Y-119112330D01*
X173655900Y-120762463D01*
X173655901Y-120762473D01*
X173670665Y-120836700D01*
X173726916Y-120920884D01*
X173811097Y-120977133D01*
X173811099Y-120977134D01*
X173885333Y-120991900D01*
X174146946Y-120991899D01*
X174215064Y-121011901D01*
X174261557Y-121065556D01*
X174271662Y-121135830D01*
X174242169Y-121200411D01*
X174200195Y-121232093D01*
X174053903Y-121300311D01*
X174053901Y-121300312D01*
X173982509Y-121350300D01*
X174670881Y-122038672D01*
X174585252Y-122052235D01*
X174472355Y-122109759D01*
X174382759Y-122199355D01*
X174325235Y-122312252D01*
X174311672Y-122397881D01*
X173623300Y-121709509D01*
X173573313Y-121780900D01*
X173476588Y-121988326D01*
X173476586Y-121988331D01*
X173417351Y-122209397D01*
X173397404Y-122437400D01*
X167368936Y-122437400D01*
X167409048Y-122287702D01*
X167428995Y-122059700D01*
X167409048Y-121831697D01*
X167349813Y-121610631D01*
X167349811Y-121610626D01*
X167253087Y-121403201D01*
X167121815Y-121215725D01*
X167121810Y-121215719D01*
X167112437Y-121206346D01*
X167078411Y-121144034D01*
X167083476Y-121073219D01*
X167096768Y-121047247D01*
X167099481Y-121043185D01*
X167099484Y-121043184D01*
X167155734Y-120959001D01*
X167170500Y-120884767D01*
X167170499Y-119234634D01*
X167170498Y-119234630D01*
X167170498Y-119234626D01*
X167155734Y-119160399D01*
X167123619Y-119112336D01*
X167099484Y-119076216D01*
X167042436Y-119038097D01*
X167015302Y-119019966D01*
X166941067Y-119005200D01*
X165290936Y-119005200D01*
X165290926Y-119005201D01*
X165216699Y-119019965D01*
X165132515Y-119076216D01*
X165076266Y-119160397D01*
X165061500Y-119234630D01*
X165061500Y-119552200D01*
X165041498Y-119620321D01*
X164987842Y-119666814D01*
X164935500Y-119678200D01*
X160515712Y-119678200D01*
X160447591Y-119658198D01*
X160426617Y-119641295D01*
X158914405Y-118129082D01*
X158880379Y-118066770D01*
X158877500Y-118039987D01*
X158877500Y-117749902D01*
X158897502Y-117681781D01*
X158944104Y-117638780D01*
X159063469Y-117574978D01*
X159218252Y-117447952D01*
X159345278Y-117293169D01*
X159439667Y-117116580D01*
X159497792Y-116924969D01*
X159508405Y-116817212D01*
X159517418Y-116725703D01*
X160014582Y-116725703D01*
X160034206Y-116924961D01*
X160034206Y-116924963D01*
X160092332Y-117116577D01*
X160092334Y-117116583D01*
X160186720Y-117293166D01*
X160186722Y-117293169D01*
X160313748Y-117447952D01*
X160468531Y-117574978D01*
X160645120Y-117669367D01*
X160836731Y-117727492D01*
X160836735Y-117727492D01*
X160836737Y-117727493D01*
X161035997Y-117747118D01*
X161036000Y-117747118D01*
X161036003Y-117747118D01*
X161235261Y-117727493D01*
X161235263Y-117727493D01*
X161235264Y-117727492D01*
X161235269Y-117727492D01*
X161426880Y-117669367D01*
X161603469Y-117574978D01*
X161758252Y-117447952D01*
X161885278Y-117293169D01*
X161979667Y-117116580D01*
X162037792Y-116924969D01*
X162048405Y-116817212D01*
X162057418Y-116725703D01*
X162057418Y-116725696D01*
X162037793Y-116526438D01*
X162037793Y-116526436D01*
X162037792Y-116526433D01*
X162037792Y-116526431D01*
X161979667Y-116334820D01*
X161885278Y-116158231D01*
X161758252Y-116003448D01*
X161603469Y-115876422D01*
X161603467Y-115876421D01*
X161603466Y-115876420D01*
X161426883Y-115782034D01*
X161426877Y-115782032D01*
X161235262Y-115723906D01*
X161036003Y-115704282D01*
X161035997Y-115704282D01*
X160836738Y-115723906D01*
X160836736Y-115723906D01*
X160645122Y-115782032D01*
X160645116Y-115782034D01*
X160468533Y-115876420D01*
X160313748Y-116003448D01*
X160186720Y-116158233D01*
X160092334Y-116334816D01*
X160092332Y-116334822D01*
X160034206Y-116526436D01*
X160034206Y-116526438D01*
X160014582Y-116725696D01*
X160014582Y-116725703D01*
X159517418Y-116725703D01*
X159517418Y-116725696D01*
X159497793Y-116526438D01*
X159497793Y-116526436D01*
X159497792Y-116526433D01*
X159497792Y-116526431D01*
X159439667Y-116334820D01*
X159345278Y-116158231D01*
X159218252Y-116003448D01*
X159063469Y-115876422D01*
X159063467Y-115876421D01*
X159063466Y-115876420D01*
X158886883Y-115782034D01*
X158886877Y-115782032D01*
X158695262Y-115723906D01*
X158496003Y-115704282D01*
X158495997Y-115704282D01*
X158296738Y-115723906D01*
X158296736Y-115723906D01*
X158105122Y-115782032D01*
X158105116Y-115782034D01*
X157928533Y-115876420D01*
X157773748Y-116003448D01*
X157646720Y-116158233D01*
X157552334Y-116334816D01*
X157552332Y-116334822D01*
X157494206Y-116526436D01*
X157494206Y-116526438D01*
X157474582Y-116725696D01*
X157474582Y-116725703D01*
X156977418Y-116725703D01*
X156977418Y-116725696D01*
X156957793Y-116526438D01*
X156957793Y-116526436D01*
X156957792Y-116526433D01*
X156957792Y-116526431D01*
X156899667Y-116334820D01*
X156805278Y-116158231D01*
X156678252Y-116003448D01*
X156523469Y-115876422D01*
X156436590Y-115829984D01*
X156404103Y-115812619D01*
X156353455Y-115762866D01*
X156337500Y-115701497D01*
X156337500Y-115272211D01*
X156357502Y-115204090D01*
X156374400Y-115183121D01*
X157079721Y-114477800D01*
X165848600Y-114477800D01*
X165848600Y-114772397D01*
X165855105Y-114832893D01*
X165906155Y-114969764D01*
X165906155Y-114969765D01*
X165993695Y-115086704D01*
X166110634Y-115174244D01*
X166247506Y-115225294D01*
X166308002Y-115231799D01*
X166308015Y-115231800D01*
X166852600Y-115231800D01*
X166852600Y-114477800D01*
X165848600Y-114477800D01*
X157079721Y-114477800D01*
X157587721Y-113969800D01*
X165848600Y-113969800D01*
X166991750Y-113969800D01*
X166908336Y-114025536D01*
X166847555Y-114116500D01*
X166826212Y-114223800D01*
X166847555Y-114331100D01*
X166908336Y-114422064D01*
X166999300Y-114482845D01*
X167079512Y-114498800D01*
X167133688Y-114498800D01*
X167213900Y-114482845D01*
X167221450Y-114477800D01*
X167360600Y-114477800D01*
X167360600Y-115231800D01*
X167905185Y-115231800D01*
X167905197Y-115231799D01*
X167965693Y-115225294D01*
X168102564Y-115174244D01*
X168102565Y-115174244D01*
X168219504Y-115086704D01*
X168307044Y-114969765D01*
X168307044Y-114969764D01*
X168358094Y-114832893D01*
X168364599Y-114772397D01*
X168364600Y-114772385D01*
X168364600Y-114477800D01*
X167360600Y-114477800D01*
X167221450Y-114477800D01*
X167304864Y-114422064D01*
X167365645Y-114331100D01*
X167386988Y-114223800D01*
X167365645Y-114116500D01*
X167304864Y-114025536D01*
X167221450Y-113969800D01*
X168364600Y-113969800D01*
X168364600Y-113675214D01*
X168364599Y-113675202D01*
X168358094Y-113614706D01*
X168326774Y-113530732D01*
X168321710Y-113459917D01*
X168355735Y-113397604D01*
X168418047Y-113363579D01*
X168444830Y-113360700D01*
X170103310Y-113360700D01*
X170171431Y-113380702D01*
X170214432Y-113427304D01*
X170289574Y-113567886D01*
X170421347Y-113728452D01*
X170581913Y-113860224D01*
X170581913Y-113860225D01*
X170581917Y-113860227D01*
X170765108Y-113958145D01*
X170963882Y-114018442D01*
X170963886Y-114018442D01*
X170963888Y-114018443D01*
X171170597Y-114038802D01*
X171170600Y-114038802D01*
X171170603Y-114038802D01*
X171377311Y-114018443D01*
X171377312Y-114018442D01*
X171377318Y-114018442D01*
X171576092Y-113958145D01*
X171759283Y-113860227D01*
X171759284Y-113860225D01*
X171759286Y-113860225D01*
X171759286Y-113860224D01*
X171919852Y-113728452D01*
X172051627Y-113567883D01*
X172149545Y-113384692D01*
X172209842Y-113185918D01*
X172228354Y-112997969D01*
X172230202Y-112979203D01*
X172230202Y-112979196D01*
X172209843Y-112772488D01*
X172209842Y-112772486D01*
X172209842Y-112772482D01*
X172149545Y-112573708D01*
X172051627Y-112390517D01*
X172051625Y-112390513D01*
X171919852Y-112229947D01*
X171759286Y-112098175D01*
X171759286Y-112098174D01*
X171576092Y-112000255D01*
X171524751Y-111984681D01*
X171377318Y-111939958D01*
X171377317Y-111939957D01*
X171377311Y-111939956D01*
X171170603Y-111919598D01*
X171170597Y-111919598D01*
X170963888Y-111939956D01*
X170765107Y-112000255D01*
X170581913Y-112098174D01*
X170581913Y-112098175D01*
X170421347Y-112229947D01*
X170289575Y-112390513D01*
X170289574Y-112390513D01*
X170214432Y-112531096D01*
X170164680Y-112581744D01*
X170103310Y-112597700D01*
X168095401Y-112597700D01*
X168027280Y-112577698D01*
X167994334Y-112546942D01*
X167909139Y-112432506D01*
X167909137Y-112432504D01*
X167887754Y-112414562D01*
X167848427Y-112355453D01*
X167847300Y-112284465D01*
X167877095Y-112231574D01*
X167878630Y-112229947D01*
X167965922Y-112137423D01*
X168054110Y-111984676D01*
X168104695Y-111815709D01*
X168114951Y-111639631D01*
X168084323Y-111465934D01*
X168051794Y-111390524D01*
X168043180Y-111320055D01*
X168074032Y-111256112D01*
X168078375Y-111251545D01*
X169548942Y-109780978D01*
X169569118Y-109764594D01*
X169578356Y-109758560D01*
X169600514Y-109730089D01*
X169605682Y-109724238D01*
X169608513Y-109721409D01*
X169621557Y-109703137D01*
X169623086Y-109701088D01*
X169656558Y-109658085D01*
X169656559Y-109658079D01*
X169660357Y-109651064D01*
X169663870Y-109643876D01*
X169663875Y-109643870D01*
X169679430Y-109591618D01*
X169680202Y-109589208D01*
X169697900Y-109537661D01*
X169697900Y-109537655D01*
X169699219Y-109529752D01*
X169700205Y-109521843D01*
X169697953Y-109467423D01*
X169697899Y-109464818D01*
X169697899Y-109388282D01*
X169697899Y-109330545D01*
X169717901Y-109262427D01*
X169740341Y-109236240D01*
X169795573Y-109187310D01*
X169883241Y-109060301D01*
X169937966Y-108916002D01*
X169937966Y-108916001D01*
X169937967Y-108915999D01*
X169956568Y-108762803D01*
X169956568Y-108762796D01*
X169937967Y-108609600D01*
X169910738Y-108537804D01*
X169883241Y-108465299D01*
X169795573Y-108338290D01*
X169680057Y-108235952D01*
X169543407Y-108164233D01*
X169543406Y-108164232D01*
X169543405Y-108164232D01*
X169393565Y-108127300D01*
X169393564Y-108127300D01*
X169239236Y-108127300D01*
X169239234Y-108127300D01*
X169089394Y-108164232D01*
X168952744Y-108235951D01*
X168952742Y-108235952D01*
X168837227Y-108338290D01*
X168749560Y-108465296D01*
X168694832Y-108609600D01*
X168676232Y-108762796D01*
X168676232Y-108762803D01*
X168694832Y-108915999D01*
X168749560Y-109060303D01*
X168765096Y-109082810D01*
X168837227Y-109187310D01*
X168837228Y-109187311D01*
X168837229Y-109187312D01*
X168857053Y-109204875D01*
X168894778Y-109265020D01*
X168893998Y-109336012D01*
X168862594Y-109388282D01*
X167358482Y-110892395D01*
X167296170Y-110926420D01*
X167269387Y-110929300D01*
X166812656Y-110929300D01*
X166681416Y-110944639D01*
X166681414Y-110944640D01*
X166515680Y-111004962D01*
X166515673Y-111004965D01*
X166368314Y-111101885D01*
X166247279Y-111230175D01*
X166247276Y-111230179D01*
X166159092Y-111382918D01*
X166159090Y-111382924D01*
X166108505Y-111551891D01*
X166098249Y-111727969D01*
X166121674Y-111860818D01*
X166128878Y-111901670D01*
X166128878Y-111901671D01*
X166198734Y-112063615D01*
X166198736Y-112063619D01*
X166304060Y-112205093D01*
X166325447Y-112223039D01*
X166364773Y-112282149D01*
X166365899Y-112353137D01*
X166336105Y-112406025D01*
X166247278Y-112500177D01*
X166247276Y-112500179D01*
X166247276Y-112500180D01*
X166159092Y-112652918D01*
X166159090Y-112652924D01*
X166108505Y-112821892D01*
X166098249Y-112997964D01*
X166098249Y-112997968D01*
X166129134Y-113173124D01*
X166121265Y-113243683D01*
X166080557Y-113295872D01*
X165993695Y-113360895D01*
X165906155Y-113477834D01*
X165906155Y-113477835D01*
X165855105Y-113614706D01*
X165848600Y-113675202D01*
X165848600Y-113969800D01*
X157587721Y-113969800D01*
X159998545Y-111558976D01*
X160018721Y-111542593D01*
X160027956Y-111536560D01*
X160050103Y-111508103D01*
X160055271Y-111502250D01*
X160058114Y-111499409D01*
X160071136Y-111481167D01*
X160072682Y-111479092D01*
X160106158Y-111436085D01*
X160106159Y-111436079D01*
X160109950Y-111429076D01*
X160113471Y-111421873D01*
X160113475Y-111421869D01*
X160129021Y-111369647D01*
X160129798Y-111367221D01*
X160147500Y-111315661D01*
X160147500Y-111315655D01*
X160148819Y-111307752D01*
X160149805Y-111299842D01*
X160147996Y-111256112D01*
X160147553Y-111245416D01*
X160147500Y-111242820D01*
X160147500Y-109156989D01*
X160167502Y-109088868D01*
X160214102Y-109045868D01*
X160354683Y-108970727D01*
X160515252Y-108838952D01*
X160647027Y-108678383D01*
X160722168Y-108537803D01*
X160771920Y-108487156D01*
X160833290Y-108471200D01*
X162501921Y-108471200D01*
X162570042Y-108491202D01*
X162613043Y-108537804D01*
X162694974Y-108691086D01*
X162826747Y-108851652D01*
X162987313Y-108983424D01*
X162987313Y-108983425D01*
X162987317Y-108983427D01*
X163170508Y-109081345D01*
X163369282Y-109141642D01*
X163369286Y-109141642D01*
X163369288Y-109141643D01*
X163575997Y-109162002D01*
X163576000Y-109162002D01*
X163576003Y-109162002D01*
X163782711Y-109141643D01*
X163782712Y-109141642D01*
X163782718Y-109141642D01*
X163981492Y-109081345D01*
X164164683Y-108983427D01*
X164164684Y-108983425D01*
X164164686Y-108983425D01*
X164164686Y-108983424D01*
X164325252Y-108851652D01*
X164457027Y-108691083D01*
X164554945Y-108507892D01*
X164615242Y-108309118D01*
X164617745Y-108283711D01*
X164635602Y-108102403D01*
X164635602Y-108102396D01*
X164615243Y-107895688D01*
X164615242Y-107895686D01*
X164615242Y-107895682D01*
X164554945Y-107696908D01*
X164457027Y-107513717D01*
X164457025Y-107513713D01*
X164325252Y-107353147D01*
X164164686Y-107221375D01*
X164164686Y-107221374D01*
X163981492Y-107123455D01*
X163831085Y-107077830D01*
X163782718Y-107063158D01*
X163782717Y-107063157D01*
X163782711Y-107063156D01*
X163576003Y-107042798D01*
X163575997Y-107042798D01*
X163369288Y-107063156D01*
X163170507Y-107123455D01*
X162987313Y-107221374D01*
X162987313Y-107221375D01*
X162826747Y-107353147D01*
X162694975Y-107513713D01*
X162694974Y-107513713D01*
X162626620Y-107641596D01*
X162576868Y-107692244D01*
X162515498Y-107708200D01*
X160833290Y-107708200D01*
X160765169Y-107688198D01*
X160722168Y-107641596D01*
X160714861Y-107627926D01*
X160647027Y-107501017D01*
X160647025Y-107501013D01*
X160515252Y-107340447D01*
X160354686Y-107208675D01*
X160354686Y-107208674D01*
X160171492Y-107110755D01*
X160041043Y-107071184D01*
X159972718Y-107050458D01*
X159972717Y-107050457D01*
X159972711Y-107050456D01*
X159766003Y-107030098D01*
X159765997Y-107030098D01*
X159559288Y-107050456D01*
X159360507Y-107110755D01*
X159177313Y-107208674D01*
X159177313Y-107208675D01*
X159016747Y-107340447D01*
X158884975Y-107501013D01*
X158884974Y-107501013D01*
X158787055Y-107684207D01*
X158726756Y-107882988D01*
X158706398Y-108089696D01*
X158706398Y-108089703D01*
X158726756Y-108296411D01*
X158726757Y-108296417D01*
X158726758Y-108296418D01*
X158737248Y-108331000D01*
X158787055Y-108495192D01*
X158884974Y-108678386D01*
X159016747Y-108838952D01*
X159177313Y-108970724D01*
X159177317Y-108970727D01*
X159317896Y-109045868D01*
X159368544Y-109095619D01*
X159384500Y-109156989D01*
X159384500Y-111041786D01*
X159364498Y-111109907D01*
X159347595Y-111130881D01*
X155723455Y-114755020D01*
X155703282Y-114771404D01*
X155694041Y-114777441D01*
X155671896Y-114805893D01*
X155666736Y-114811738D01*
X155663889Y-114814585D01*
X155650857Y-114832839D01*
X155649302Y-114834924D01*
X155615842Y-114877913D01*
X155612030Y-114884958D01*
X155608525Y-114892127D01*
X155592978Y-114944346D01*
X155592184Y-114946824D01*
X155574499Y-114998341D01*
X155573184Y-115006218D01*
X155572194Y-115014160D01*
X155574446Y-115068573D01*
X155574500Y-115071177D01*
X155574500Y-115701497D01*
X155554498Y-115769618D01*
X155507897Y-115812619D01*
X155456822Y-115839919D01*
X155388531Y-115876422D01*
X155233748Y-116003448D01*
X155106720Y-116158233D01*
X155012334Y-116334816D01*
X155012332Y-116334822D01*
X154954206Y-116526436D01*
X154954206Y-116526438D01*
X154934582Y-116725696D01*
X154934582Y-116725703D01*
X154954206Y-116924961D01*
X154954207Y-116924966D01*
X154999870Y-117075497D01*
X155000503Y-117146490D01*
X154962654Y-117206557D01*
X154898339Y-117236625D01*
X154827977Y-117227148D01*
X154790200Y-117201167D01*
X154468557Y-116879524D01*
X154434531Y-116817212D01*
X154432259Y-116778078D01*
X154437418Y-116725701D01*
X154437418Y-116725696D01*
X154417793Y-116526438D01*
X154417793Y-116526436D01*
X154417792Y-116526433D01*
X154417792Y-116526431D01*
X154359667Y-116334820D01*
X154265278Y-116158231D01*
X154138252Y-116003448D01*
X153983469Y-115876422D01*
X153983467Y-115876421D01*
X153983466Y-115876420D01*
X153806883Y-115782034D01*
X153806877Y-115782032D01*
X153615262Y-115723906D01*
X153416003Y-115704282D01*
X153415995Y-115704282D01*
X153363618Y-115709440D01*
X153293865Y-115696211D01*
X153262177Y-115673144D01*
X152310404Y-114721371D01*
X152276379Y-114659059D01*
X152273500Y-114632276D01*
X152273500Y-107503422D01*
X152293502Y-107435301D01*
X152310405Y-107414327D01*
X153462628Y-106262105D01*
X153524940Y-106228079D01*
X153551723Y-106225200D01*
X153593801Y-106225200D01*
X153661922Y-106245202D01*
X153694350Y-106275267D01*
X153712165Y-106298858D01*
X153792049Y-106404643D01*
X153957014Y-106555028D01*
X153957016Y-106555029D01*
X153957017Y-106555030D01*
X154146808Y-106672543D01*
X154163961Y-106679188D01*
X154275009Y-106722209D01*
X154331304Y-106765468D01*
X154355274Y-106832296D01*
X154339310Y-106901474D01*
X154288479Y-106951040D01*
X154275009Y-106957191D01*
X154146814Y-107006854D01*
X154146807Y-107006857D01*
X153957014Y-107124371D01*
X153792048Y-107274757D01*
X153657528Y-107452892D01*
X153558026Y-107652720D01*
X153558023Y-107652728D01*
X153496936Y-107867427D01*
X153476340Y-108089695D01*
X153476340Y-108089704D01*
X153496936Y-108311972D01*
X153557851Y-108526068D01*
X153558026Y-108526680D01*
X153657526Y-108726504D01*
X153657527Y-108726505D01*
X153657528Y-108726507D01*
X153792048Y-108904642D01*
X153957014Y-109055028D01*
X153957016Y-109055029D01*
X153957017Y-109055030D01*
X154146808Y-109172543D01*
X154184926Y-109187310D01*
X154354954Y-109253180D01*
X154354957Y-109253180D01*
X154354961Y-109253182D01*
X154574387Y-109294200D01*
X154574390Y-109294200D01*
X154797610Y-109294200D01*
X154797613Y-109294200D01*
X155017039Y-109253182D01*
X155017043Y-109253180D01*
X155017045Y-109253180D01*
X155082207Y-109227935D01*
X155225192Y-109172543D01*
X155414983Y-109055030D01*
X155579950Y-108904643D01*
X155714474Y-108726504D01*
X155813974Y-108526680D01*
X155875063Y-108311974D01*
X155885240Y-108202148D01*
X155895660Y-108089704D01*
X155895660Y-108089695D01*
X155875063Y-107867427D01*
X155862422Y-107823000D01*
X155813974Y-107652720D01*
X155714474Y-107452896D01*
X155701187Y-107435301D01*
X155579951Y-107274757D01*
X155414985Y-107124371D01*
X155225192Y-107006857D01*
X155225185Y-107006854D01*
X155096990Y-106957191D01*
X155040695Y-106913932D01*
X155016725Y-106847104D01*
X155032689Y-106777926D01*
X155083520Y-106728360D01*
X155096990Y-106722209D01*
X155168651Y-106694447D01*
X155225192Y-106672543D01*
X155414983Y-106555030D01*
X155579950Y-106404643D01*
X155677649Y-106275268D01*
X155734662Y-106232961D01*
X155778199Y-106225200D01*
X159939718Y-106225200D01*
X159960066Y-106225200D01*
X159979775Y-106226750D01*
X159999879Y-106229935D01*
X160034014Y-106226708D01*
X160047011Y-106225480D01*
X160052944Y-106225200D01*
X166624500Y-106225200D01*
X166692621Y-106245202D01*
X166739114Y-106298858D01*
X166750500Y-106351200D01*
X166750500Y-107187500D01*
X166730498Y-107255621D01*
X166704434Y-107284899D01*
X166636745Y-107340450D01*
X166504975Y-107501013D01*
X166504974Y-107501013D01*
X166407055Y-107684207D01*
X166346756Y-107882988D01*
X166326398Y-108089696D01*
X166326398Y-108089703D01*
X166346756Y-108296411D01*
X166346757Y-108296417D01*
X166346758Y-108296418D01*
X166357248Y-108331000D01*
X166407055Y-108495192D01*
X166504974Y-108678386D01*
X166636747Y-108838952D01*
X166797313Y-108970724D01*
X166797313Y-108970725D01*
X166797317Y-108970727D01*
X166980508Y-109068645D01*
X167179282Y-109128942D01*
X167179286Y-109128942D01*
X167179288Y-109128943D01*
X167385997Y-109149302D01*
X167386000Y-109149302D01*
X167386003Y-109149302D01*
X167592711Y-109128943D01*
X167592712Y-109128942D01*
X167592718Y-109128942D01*
X167791492Y-109068645D01*
X167974683Y-108970727D01*
X167974684Y-108970725D01*
X167974686Y-108970725D01*
X167974686Y-108970724D01*
X168135252Y-108838952D01*
X168267027Y-108678383D01*
X168364945Y-108495192D01*
X168425242Y-108296418D01*
X168431198Y-108235952D01*
X168445602Y-108089703D01*
X168445602Y-108089696D01*
X168425243Y-107882988D01*
X168425242Y-107882986D01*
X168425242Y-107882982D01*
X168364945Y-107684208D01*
X168267027Y-107501017D01*
X168267025Y-107501013D01*
X168135254Y-107340450D01*
X168135250Y-107340447D01*
X168105173Y-107315763D01*
X168067566Y-107284899D01*
X168027597Y-107226222D01*
X168021500Y-107187500D01*
X168021500Y-106351200D01*
X168041502Y-106283079D01*
X168095158Y-106236586D01*
X168147500Y-106225200D01*
X168380578Y-106225200D01*
X168448699Y-106245202D01*
X168469672Y-106262104D01*
X170108683Y-107901116D01*
X170142708Y-107963426D01*
X170144980Y-108002559D01*
X170136398Y-108089696D01*
X170136398Y-108089703D01*
X170156756Y-108296411D01*
X170156757Y-108296417D01*
X170156758Y-108296418D01*
X170167248Y-108331000D01*
X170217055Y-108495192D01*
X170314974Y-108678386D01*
X170446747Y-108838952D01*
X170607313Y-108970724D01*
X170607313Y-108970725D01*
X170607317Y-108970727D01*
X170790508Y-109068645D01*
X170989282Y-109128942D01*
X170989286Y-109128942D01*
X170989288Y-109128943D01*
X171195997Y-109149302D01*
X171196000Y-109149302D01*
X171196003Y-109149302D01*
X171402711Y-109128943D01*
X171402712Y-109128942D01*
X171402718Y-109128942D01*
X171601492Y-109068645D01*
X171784683Y-108970727D01*
X171784684Y-108970725D01*
X171784686Y-108970725D01*
X171784686Y-108970724D01*
X171945252Y-108838952D01*
X172077027Y-108678383D01*
X172174945Y-108495192D01*
X172235242Y-108296418D01*
X172241198Y-108235952D01*
X172255602Y-108089703D01*
X172255602Y-108089696D01*
X172235243Y-107882988D01*
X172235242Y-107882986D01*
X172235242Y-107882982D01*
X172174945Y-107684208D01*
X172077027Y-107501017D01*
X172077025Y-107501013D01*
X171945252Y-107340447D01*
X171784686Y-107208675D01*
X171784686Y-107208674D01*
X171601492Y-107110755D01*
X171471043Y-107071184D01*
X171402718Y-107050458D01*
X171402717Y-107050457D01*
X171402711Y-107050456D01*
X171196003Y-107030098D01*
X171195998Y-107030098D01*
X171108859Y-107038680D01*
X171039105Y-107025451D01*
X171007414Y-107002382D01*
X169204815Y-105199782D01*
X169194831Y-105187320D01*
X169194607Y-105187506D01*
X169189554Y-105181398D01*
X169139012Y-105133936D01*
X169137622Y-105132589D01*
X169127344Y-105122311D01*
X169117099Y-105112065D01*
X169115462Y-105110795D01*
X169111520Y-105107737D01*
X169107015Y-105103889D01*
X169072506Y-105071483D01*
X169072499Y-105071478D01*
X169054673Y-105061678D01*
X169038147Y-105050823D01*
X169022066Y-105038349D01*
X169022067Y-105038349D01*
X168978612Y-105019545D01*
X168973279Y-105016932D01*
X168931805Y-104994132D01*
X168931803Y-104994131D01*
X168912085Y-104989068D01*
X168893382Y-104982664D01*
X168874706Y-104974582D01*
X168827941Y-104967175D01*
X168822135Y-104965973D01*
X168806861Y-104962051D01*
X168776286Y-104954200D01*
X168776282Y-104954200D01*
X168755934Y-104954200D01*
X168736224Y-104952649D01*
X168716121Y-104949465D01*
X168716120Y-104949465D01*
X168668989Y-104953920D01*
X168663056Y-104954200D01*
X167597070Y-104954200D01*
X167581201Y-104952447D01*
X167581174Y-104952738D01*
X167573281Y-104951991D01*
X167503999Y-104954169D01*
X167502021Y-104954200D01*
X160527500Y-104954200D01*
X160459379Y-104934198D01*
X160412886Y-104880542D01*
X160401500Y-104828200D01*
X160401500Y-101371899D01*
X160421502Y-101303778D01*
X160447567Y-101274499D01*
X160515252Y-101218952D01*
X160647027Y-101058383D01*
X160744945Y-100875192D01*
X160805242Y-100676418D01*
X160824351Y-100482403D01*
X162516398Y-100482403D01*
X162536756Y-100689111D01*
X162597055Y-100887892D01*
X162694974Y-101071086D01*
X162826747Y-101231652D01*
X162987313Y-101363424D01*
X162987313Y-101363425D01*
X162987317Y-101363427D01*
X163170508Y-101461345D01*
X163369282Y-101521642D01*
X163369286Y-101521642D01*
X163369288Y-101521643D01*
X163575997Y-101542002D01*
X163576000Y-101542002D01*
X163576003Y-101542002D01*
X163782711Y-101521643D01*
X163782712Y-101521642D01*
X163782718Y-101521642D01*
X163981492Y-101461345D01*
X164164683Y-101363427D01*
X164164684Y-101363425D01*
X164164686Y-101363425D01*
X164164686Y-101363424D01*
X164325252Y-101231652D01*
X164457027Y-101071083D01*
X164554945Y-100887892D01*
X164615242Y-100689118D01*
X164617745Y-100663711D01*
X164635602Y-100482403D01*
X164635602Y-100482396D01*
X164634352Y-100469703D01*
X166326398Y-100469703D01*
X166346756Y-100676411D01*
X166346757Y-100676417D01*
X166346758Y-100676418D01*
X166403203Y-100862492D01*
X166407055Y-100875192D01*
X166504974Y-101058386D01*
X166636747Y-101218952D01*
X166797313Y-101350724D01*
X166797313Y-101350725D01*
X166797317Y-101350727D01*
X166980508Y-101448645D01*
X167179282Y-101508942D01*
X167179286Y-101508942D01*
X167179288Y-101508943D01*
X167385997Y-101529302D01*
X167386000Y-101529302D01*
X167386003Y-101529302D01*
X167592711Y-101508943D01*
X167592712Y-101508942D01*
X167592718Y-101508942D01*
X167791492Y-101448645D01*
X167974683Y-101350727D01*
X167974684Y-101350725D01*
X167974686Y-101350725D01*
X167974686Y-101350724D01*
X168135252Y-101218952D01*
X168267027Y-101058383D01*
X168364945Y-100875192D01*
X168425242Y-100676418D01*
X168445602Y-100469703D01*
X170136398Y-100469703D01*
X170156756Y-100676411D01*
X170156757Y-100676417D01*
X170156758Y-100676418D01*
X170213203Y-100862492D01*
X170217055Y-100875192D01*
X170314974Y-101058386D01*
X170446747Y-101218952D01*
X170607313Y-101350724D01*
X170607313Y-101350725D01*
X170607317Y-101350727D01*
X170790508Y-101448645D01*
X170989282Y-101508942D01*
X170989286Y-101508942D01*
X170989288Y-101508943D01*
X171195997Y-101529302D01*
X171196000Y-101529302D01*
X171196003Y-101529302D01*
X171402711Y-101508943D01*
X171402712Y-101508942D01*
X171402718Y-101508942D01*
X171601492Y-101448645D01*
X171784683Y-101350727D01*
X171784684Y-101350725D01*
X171784686Y-101350725D01*
X171784686Y-101350724D01*
X171945252Y-101218952D01*
X172077027Y-101058383D01*
X172174945Y-100875192D01*
X172235242Y-100676418D01*
X172255602Y-100469700D01*
X172255602Y-100469696D01*
X172254352Y-100457003D01*
X173997198Y-100457003D01*
X174017556Y-100663711D01*
X174017557Y-100663717D01*
X174017558Y-100663718D01*
X174025261Y-100689111D01*
X174077855Y-100862492D01*
X174175774Y-101045686D01*
X174307547Y-101206252D01*
X174468113Y-101338024D01*
X174468113Y-101338025D01*
X174468117Y-101338027D01*
X174651308Y-101435945D01*
X174850082Y-101496242D01*
X174850086Y-101496242D01*
X174850088Y-101496243D01*
X175056797Y-101516602D01*
X175056800Y-101516602D01*
X175056803Y-101516602D01*
X175263511Y-101496243D01*
X175263512Y-101496242D01*
X175263518Y-101496242D01*
X175462292Y-101435945D01*
X175645483Y-101338027D01*
X175645484Y-101338025D01*
X175645486Y-101338025D01*
X175645486Y-101338024D01*
X175806052Y-101206252D01*
X175937827Y-101045683D01*
X176035745Y-100862492D01*
X176096042Y-100663718D01*
X176113901Y-100482400D01*
X176116402Y-100457003D01*
X176116402Y-100456996D01*
X176096043Y-100250288D01*
X176096042Y-100250286D01*
X176096042Y-100250282D01*
X176035745Y-100051508D01*
X175951404Y-99893717D01*
X175937825Y-99868313D01*
X175806052Y-99707747D01*
X175645486Y-99575975D01*
X175645486Y-99575974D01*
X175462292Y-99478055D01*
X175347251Y-99443158D01*
X175263518Y-99417758D01*
X175263517Y-99417757D01*
X175263511Y-99417756D01*
X175056803Y-99397398D01*
X175056797Y-99397398D01*
X174850088Y-99417756D01*
X174651307Y-99478055D01*
X174468113Y-99575974D01*
X174468113Y-99575975D01*
X174307547Y-99707747D01*
X174175775Y-99868313D01*
X174175774Y-99868313D01*
X174077855Y-100051507D01*
X174017556Y-100250288D01*
X173997198Y-100456996D01*
X173997198Y-100457003D01*
X172254352Y-100457003D01*
X172235243Y-100262988D01*
X172235242Y-100262986D01*
X172235242Y-100262982D01*
X172174945Y-100064208D01*
X172077027Y-99881017D01*
X172077025Y-99881013D01*
X171945252Y-99720447D01*
X171784686Y-99588675D01*
X171784686Y-99588674D01*
X171601492Y-99490755D01*
X171559625Y-99478055D01*
X171402718Y-99430458D01*
X171402717Y-99430457D01*
X171402711Y-99430456D01*
X171196003Y-99410098D01*
X171195997Y-99410098D01*
X170989288Y-99430456D01*
X170790507Y-99490755D01*
X170607313Y-99588674D01*
X170607313Y-99588675D01*
X170446747Y-99720447D01*
X170314975Y-99881013D01*
X170314974Y-99881013D01*
X170217055Y-100064207D01*
X170156756Y-100262988D01*
X170136398Y-100469696D01*
X170136398Y-100469703D01*
X168445602Y-100469703D01*
X168445602Y-100469700D01*
X168445602Y-100469696D01*
X168425243Y-100262988D01*
X168425242Y-100262986D01*
X168425242Y-100262982D01*
X168364945Y-100064208D01*
X168267027Y-99881017D01*
X168267025Y-99881013D01*
X168135252Y-99720447D01*
X167974686Y-99588675D01*
X167974686Y-99588674D01*
X167791492Y-99490755D01*
X167749625Y-99478055D01*
X167592718Y-99430458D01*
X167592717Y-99430457D01*
X167592711Y-99430456D01*
X167386003Y-99410098D01*
X167385997Y-99410098D01*
X167179288Y-99430456D01*
X166980507Y-99490755D01*
X166797313Y-99588674D01*
X166797313Y-99588675D01*
X166636747Y-99720447D01*
X166504975Y-99881013D01*
X166504974Y-99881013D01*
X166407055Y-100064207D01*
X166346756Y-100262988D01*
X166326398Y-100469696D01*
X166326398Y-100469703D01*
X164634352Y-100469703D01*
X164615243Y-100275688D01*
X164615242Y-100275686D01*
X164615242Y-100275682D01*
X164554945Y-100076908D01*
X164457027Y-99893717D01*
X164457025Y-99893713D01*
X164325252Y-99733147D01*
X164164686Y-99601375D01*
X164164686Y-99601374D01*
X163981492Y-99503455D01*
X163788909Y-99445036D01*
X163782718Y-99443158D01*
X163782717Y-99443157D01*
X163782711Y-99443156D01*
X163576003Y-99422798D01*
X163575997Y-99422798D01*
X163369288Y-99443156D01*
X163170507Y-99503455D01*
X162987313Y-99601374D01*
X162987313Y-99601375D01*
X162826747Y-99733147D01*
X162694975Y-99893713D01*
X162694974Y-99893713D01*
X162597055Y-100076907D01*
X162536756Y-100275688D01*
X162516398Y-100482396D01*
X162516398Y-100482403D01*
X160824351Y-100482403D01*
X160825602Y-100469700D01*
X160825602Y-100469696D01*
X160805243Y-100262988D01*
X160805242Y-100262986D01*
X160805242Y-100262982D01*
X160744945Y-100064208D01*
X160647027Y-99881017D01*
X160647025Y-99881013D01*
X160515252Y-99720447D01*
X160354686Y-99588675D01*
X160354686Y-99588674D01*
X160171492Y-99490755D01*
X160129625Y-99478055D01*
X159972718Y-99430458D01*
X159972717Y-99430457D01*
X159972711Y-99430456D01*
X159766003Y-99410098D01*
X159765997Y-99410098D01*
X159559288Y-99430456D01*
X159360507Y-99490755D01*
X159177313Y-99588674D01*
X159177313Y-99588675D01*
X159016747Y-99720447D01*
X158884975Y-99881013D01*
X158884974Y-99881013D01*
X158787055Y-100064207D01*
X158726756Y-100262988D01*
X158706398Y-100469696D01*
X158706398Y-100469703D01*
X158726756Y-100676411D01*
X158726757Y-100676417D01*
X158726758Y-100676418D01*
X158787055Y-100875192D01*
X158884973Y-101058383D01*
X159016748Y-101218952D01*
X159084433Y-101274499D01*
X159124402Y-101333176D01*
X159130500Y-101371899D01*
X159130500Y-104828200D01*
X159110498Y-104896321D01*
X159056842Y-104942814D01*
X159004500Y-104954200D01*
X155778199Y-104954200D01*
X155710078Y-104934198D01*
X155677648Y-104904131D01*
X155671750Y-104896321D01*
X155620308Y-104828200D01*
X155579950Y-104774756D01*
X155414985Y-104624371D01*
X155380356Y-104602930D01*
X155258249Y-104527325D01*
X155210863Y-104474460D01*
X155199580Y-104404366D01*
X155227983Y-104339298D01*
X155287056Y-104299916D01*
X155324579Y-104294199D01*
X155661066Y-104294199D01*
X155661069Y-104294198D01*
X155661073Y-104294198D01*
X155710326Y-104284401D01*
X155735301Y-104279434D01*
X155819484Y-104223184D01*
X155875734Y-104139001D01*
X155890500Y-104064767D01*
X155890499Y-102114634D01*
X155890498Y-102114631D01*
X155890498Y-102114626D01*
X155875734Y-102040399D01*
X155819483Y-101956215D01*
X155735302Y-101899966D01*
X155661069Y-101885200D01*
X155661067Y-101885200D01*
X154432423Y-101885200D01*
X154364302Y-101865198D01*
X154343328Y-101848295D01*
X152894815Y-100399782D01*
X152884831Y-100387320D01*
X152884607Y-100387506D01*
X152879554Y-100381398D01*
X152829012Y-100333936D01*
X152827622Y-100332589D01*
X152817344Y-100322311D01*
X152807099Y-100312065D01*
X152807094Y-100312061D01*
X152801520Y-100307737D01*
X152797015Y-100303889D01*
X152762506Y-100271483D01*
X152762499Y-100271478D01*
X152744673Y-100261678D01*
X152728147Y-100250823D01*
X152712066Y-100238349D01*
X152712067Y-100238349D01*
X152668612Y-100219545D01*
X152663279Y-100216932D01*
X152621805Y-100194132D01*
X152621803Y-100194131D01*
X152602085Y-100189068D01*
X152583382Y-100182664D01*
X152564706Y-100174582D01*
X152517941Y-100167175D01*
X152512135Y-100165973D01*
X152496861Y-100162051D01*
X152466286Y-100154200D01*
X152466282Y-100154200D01*
X152445934Y-100154200D01*
X152426224Y-100152649D01*
X152406121Y-100149465D01*
X152406120Y-100149465D01*
X152358989Y-100153920D01*
X152353056Y-100154200D01*
X140891647Y-100154200D01*
X140823526Y-100134198D01*
X140784214Y-100094034D01*
X140666932Y-99902646D01*
X140666927Y-99902639D01*
X140513132Y-99722567D01*
X140333060Y-99568772D01*
X140333058Y-99568771D01*
X140333057Y-99568770D01*
X140131141Y-99445036D01*
X140126607Y-99443158D01*
X139912354Y-99354411D01*
X139682083Y-99299128D01*
X139446000Y-99280548D01*
X139209917Y-99299128D01*
X138979645Y-99354411D01*
X138760860Y-99445035D01*
X138558941Y-99568771D01*
X138558939Y-99568772D01*
X138378867Y-99722567D01*
X138225072Y-99902639D01*
X138225071Y-99902641D01*
X138101335Y-100104560D01*
X138010711Y-100323345D01*
X137955428Y-100553617D01*
X137936848Y-100789699D01*
X127000500Y-100789699D01*
X127000500Y-74803004D01*
X146719354Y-74803004D01*
X146739095Y-75016044D01*
X146739095Y-75016047D01*
X146739096Y-75016048D01*
X146797649Y-75221840D01*
X146893019Y-75413370D01*
X146893020Y-75413371D01*
X146893021Y-75413373D01*
X147021955Y-75584110D01*
X147180078Y-75728258D01*
X147180079Y-75728259D01*
X147361978Y-75840886D01*
X147361981Y-75840887D01*
X147361990Y-75840893D01*
X147561498Y-75918183D01*
X147561499Y-75918183D01*
X147561503Y-75918185D01*
X147670963Y-75938646D01*
X147734245Y-75970824D01*
X147770088Y-76032108D01*
X147767107Y-76103043D01*
X147726250Y-76161105D01*
X147660488Y-76187860D01*
X147647808Y-76188500D01*
X146953736Y-76188500D01*
X146953726Y-76188501D01*
X146879499Y-76203265D01*
X146795315Y-76259516D01*
X146739066Y-76343697D01*
X146724300Y-76417930D01*
X146724300Y-78268063D01*
X146724301Y-78268073D01*
X146739065Y-78342300D01*
X146795316Y-78426484D01*
X146879497Y-78482733D01*
X146879499Y-78482734D01*
X146953733Y-78497500D01*
X148803866Y-78497499D01*
X148803869Y-78497498D01*
X148803873Y-78497498D01*
X148853126Y-78487701D01*
X148878101Y-78482734D01*
X148962284Y-78426484D01*
X149018534Y-78342301D01*
X149033300Y-78268067D01*
X149033299Y-76417934D01*
X149033298Y-76417930D01*
X149033298Y-76417926D01*
X149018534Y-76343699D01*
X148992586Y-76304866D01*
X148962284Y-76259516D01*
X148962283Y-76259515D01*
X148878102Y-76203266D01*
X148803869Y-76188500D01*
X148109793Y-76188500D01*
X148041672Y-76168498D01*
X147995179Y-76114842D01*
X147985075Y-76044568D01*
X148014569Y-75979988D01*
X148074295Y-75941604D01*
X148086625Y-75938648D01*
X148196097Y-75918185D01*
X148395610Y-75840893D01*
X148577522Y-75728258D01*
X148735641Y-75584114D01*
X148864581Y-75413370D01*
X148959951Y-75221840D01*
X149018504Y-75016048D01*
X149028831Y-74904604D01*
X158581153Y-74904604D01*
X158600895Y-75117644D01*
X158630539Y-75221834D01*
X158659449Y-75323440D01*
X158754819Y-75514970D01*
X158754820Y-75514971D01*
X158754821Y-75514973D01*
X158883755Y-75685710D01*
X159041878Y-75829858D01*
X159041879Y-75829859D01*
X159223778Y-75942486D01*
X159223781Y-75942487D01*
X159223790Y-75942493D01*
X159423298Y-76019783D01*
X159423299Y-76019783D01*
X159423303Y-76019785D01*
X159532763Y-76040246D01*
X159596045Y-76072424D01*
X159631888Y-76133708D01*
X159628907Y-76204643D01*
X159588050Y-76262705D01*
X159522288Y-76289460D01*
X159509608Y-76290100D01*
X158815536Y-76290100D01*
X158815526Y-76290101D01*
X158741299Y-76304865D01*
X158657115Y-76361116D01*
X158600866Y-76445297D01*
X158586100Y-76519530D01*
X158586100Y-78369663D01*
X158586101Y-78369673D01*
X158600865Y-78443900D01*
X158657116Y-78528084D01*
X158741297Y-78584333D01*
X158741299Y-78584334D01*
X158815533Y-78599100D01*
X160665666Y-78599099D01*
X160665669Y-78599098D01*
X160665673Y-78599098D01*
X160714926Y-78589301D01*
X160739901Y-78584334D01*
X160824084Y-78528084D01*
X160880334Y-78443901D01*
X160895100Y-78369667D01*
X160895099Y-76519534D01*
X160895098Y-76519530D01*
X160895098Y-76519526D01*
X160880334Y-76445299D01*
X160824083Y-76361115D01*
X160739902Y-76304866D01*
X160665669Y-76290100D01*
X159971593Y-76290100D01*
X159903472Y-76270098D01*
X159856979Y-76216442D01*
X159846875Y-76146168D01*
X159876369Y-76081588D01*
X159936095Y-76043204D01*
X159948425Y-76040248D01*
X160057897Y-76019785D01*
X160257410Y-75942493D01*
X160439322Y-75829858D01*
X160597441Y-75685714D01*
X160726381Y-75514970D01*
X160821751Y-75323440D01*
X160880304Y-75117648D01*
X160900046Y-74904600D01*
X160880304Y-74691552D01*
X160821751Y-74485760D01*
X160726381Y-74294230D01*
X160726378Y-74294226D01*
X160597444Y-74123489D01*
X160439321Y-73979341D01*
X160439320Y-73979340D01*
X160257421Y-73866713D01*
X160257414Y-73866709D01*
X160257410Y-73866707D01*
X160257405Y-73866705D01*
X160057901Y-73789416D01*
X160057902Y-73789416D01*
X160057897Y-73789415D01*
X159847580Y-73750100D01*
X159633620Y-73750100D01*
X159474913Y-73779767D01*
X159423297Y-73789416D01*
X159223794Y-73866705D01*
X159223778Y-73866713D01*
X159041879Y-73979340D01*
X159041878Y-73979341D01*
X158883755Y-74123489D01*
X158754821Y-74294226D01*
X158659449Y-74485760D01*
X158659447Y-74485765D01*
X158600895Y-74691555D01*
X158581153Y-74904595D01*
X158581153Y-74904604D01*
X149028831Y-74904604D01*
X149038246Y-74803000D01*
X149018504Y-74589952D01*
X148959951Y-74384160D01*
X148864581Y-74192630D01*
X148812366Y-74123486D01*
X148735644Y-74021889D01*
X148577521Y-73877741D01*
X148577520Y-73877740D01*
X148395621Y-73765113D01*
X148395614Y-73765109D01*
X148395610Y-73765107D01*
X148356873Y-73750100D01*
X148196101Y-73687816D01*
X148196102Y-73687816D01*
X148196097Y-73687815D01*
X147985780Y-73648500D01*
X147771820Y-73648500D01*
X147613113Y-73678167D01*
X147561497Y-73687816D01*
X147361994Y-73765105D01*
X147361978Y-73765113D01*
X147180079Y-73877740D01*
X147180078Y-73877741D01*
X147021955Y-74021889D01*
X146893021Y-74192626D01*
X146797649Y-74384160D01*
X146797647Y-74384165D01*
X146739095Y-74589955D01*
X146719354Y-74802995D01*
X146719354Y-74803004D01*
X127000500Y-74803004D01*
X127000500Y-45847005D01*
X146934047Y-45847005D01*
X146936167Y-45877998D01*
X146936153Y-45886798D01*
X146936146Y-45886892D01*
X146937034Y-45890675D01*
X146949273Y-46069618D01*
X146948429Y-46073437D01*
X146950559Y-46088415D01*
X146951834Y-46107059D01*
X146951836Y-46107072D01*
X146959765Y-46145233D01*
X146960847Y-46153018D01*
X146962008Y-46156021D01*
X146998508Y-46331669D01*
X146998154Y-46336041D01*
X147002664Y-46351668D01*
X147004871Y-46362292D01*
X147004875Y-46362304D01*
X147020637Y-46406654D01*
X147022450Y-46413012D01*
X147023689Y-46415243D01*
X147083795Y-46584362D01*
X147084065Y-46589202D01*
X147091114Y-46604957D01*
X147092168Y-46607923D01*
X147092170Y-46607928D01*
X147117639Y-46657081D01*
X147119724Y-46661782D01*
X147120848Y-46663275D01*
X147203482Y-46822750D01*
X147204405Y-46827486D01*
X147205040Y-46828335D01*
X147208435Y-46833356D01*
X147212099Y-46839381D01*
X147248931Y-46891560D01*
X147250742Y-46894466D01*
X147251566Y-46895293D01*
X147355259Y-47042192D01*
X147356960Y-47047173D01*
X147365814Y-47056027D01*
X147367309Y-47057574D01*
X147412019Y-47105447D01*
X147412909Y-47106511D01*
X147413264Y-47106780D01*
X147536173Y-47238383D01*
X147538724Y-47243459D01*
X147567344Y-47264884D01*
X147569330Y-47266434D01*
X147742568Y-47407374D01*
X147742571Y-47407375D01*
X147742704Y-47407484D01*
X147746148Y-47412494D01*
X147792282Y-47437686D01*
X147794802Y-47439138D01*
X147965297Y-47542819D01*
X147965300Y-47542820D01*
X147968975Y-47545055D01*
X147968161Y-47546392D01*
X147971498Y-47549587D01*
X148036320Y-47573764D01*
X148039403Y-47575008D01*
X148081696Y-47593378D01*
X148204396Y-47646674D01*
X148204416Y-47646679D01*
X148208313Y-47648065D01*
X148218637Y-47655545D01*
X148294751Y-47672103D01*
X148298323Y-47672991D01*
X148426880Y-47709011D01*
X148455401Y-47717003D01*
X148455404Y-47717003D01*
X148455409Y-47717005D01*
X148457214Y-47717253D01*
X148457739Y-47717489D01*
X148459616Y-47717879D01*
X148459529Y-47718293D01*
X148475966Y-47725677D01*
X148562606Y-47731874D01*
X148566687Y-47732299D01*
X148577321Y-47733761D01*
X148713647Y-47752499D01*
X148713660Y-47752500D01*
X159134340Y-47752500D01*
X159134350Y-47752499D01*
X159179431Y-47746302D01*
X159281328Y-47732297D01*
X159285389Y-47731873D01*
X159366816Y-47726050D01*
X159388433Y-47718118D01*
X159388384Y-47717879D01*
X159390003Y-47717542D01*
X159390796Y-47717251D01*
X159392591Y-47717005D01*
X159549684Y-47672989D01*
X159553245Y-47672104D01*
X159625154Y-47656461D01*
X159639687Y-47648065D01*
X159643579Y-47646680D01*
X159643604Y-47646674D01*
X159808611Y-47575001D01*
X159811688Y-47573760D01*
X159872956Y-47550908D01*
X159879488Y-47545817D01*
X159879025Y-47545055D01*
X159882699Y-47542820D01*
X159882703Y-47542819D01*
X160053228Y-47439119D01*
X160055725Y-47437680D01*
X160099678Y-47413680D01*
X160105295Y-47407485D01*
X160105429Y-47407375D01*
X160105432Y-47407374D01*
X160278658Y-47266443D01*
X160280658Y-47264882D01*
X160307417Y-47244850D01*
X160311822Y-47238387D01*
X160434736Y-47106779D01*
X160434986Y-47106631D01*
X160435951Y-47105478D01*
X160480740Y-47057521D01*
X160482200Y-47056011D01*
X160489518Y-47048692D01*
X160492741Y-47042192D01*
X160561143Y-46945288D01*
X160596432Y-46895295D01*
X160597039Y-46894813D01*
X160599048Y-46891589D01*
X160635901Y-46839381D01*
X160635912Y-46839359D01*
X160639568Y-46833348D01*
X160642356Y-46829222D01*
X160644514Y-46822757D01*
X160727151Y-46663274D01*
X160728008Y-46662379D01*
X160730347Y-46657105D01*
X160755830Y-46607927D01*
X160756886Y-46604957D01*
X160762856Y-46591610D01*
X160764204Y-46584364D01*
X160824310Y-46415242D01*
X160825302Y-46413873D01*
X160827354Y-46406677D01*
X160843127Y-46362299D01*
X160845338Y-46351658D01*
X160849186Y-46338324D01*
X160849490Y-46331675D01*
X160885993Y-46156017D01*
X160887037Y-46154061D01*
X160887072Y-46153580D01*
X160888231Y-46145246D01*
X160888234Y-46145233D01*
X160896164Y-46107072D01*
X160896226Y-46106158D01*
X160897441Y-46088410D01*
X160899272Y-46075526D01*
X160898726Y-46069617D01*
X160905063Y-45976968D01*
X160910965Y-45890672D01*
X160911935Y-45888048D01*
X160911846Y-45886800D01*
X160911832Y-45878008D01*
X160913953Y-45847000D01*
X160911832Y-45815991D01*
X160911846Y-45807198D01*
X160911852Y-45807107D01*
X160910965Y-45803323D01*
X160898726Y-45624381D01*
X160899569Y-45620560D01*
X160897441Y-45605589D01*
X160896165Y-45586941D01*
X160896164Y-45586938D01*
X160896164Y-45586928D01*
X160888230Y-45548751D01*
X160887149Y-45540976D01*
X160885992Y-45537981D01*
X160849491Y-45362327D01*
X160849844Y-45357957D01*
X160845337Y-45342337D01*
X160843128Y-45331707D01*
X160843127Y-45331702D01*
X160843127Y-45331701D01*
X160827359Y-45287336D01*
X160825548Y-45280987D01*
X160824309Y-45278753D01*
X160764203Y-45109634D01*
X160763933Y-45104796D01*
X160756884Y-45089038D01*
X160755831Y-45086076D01*
X160755830Y-45086073D01*
X160730354Y-45036907D01*
X160728276Y-45032222D01*
X160727151Y-45030725D01*
X160644515Y-44871244D01*
X160643593Y-44866514D01*
X160642962Y-44865671D01*
X160639565Y-44860646D01*
X160635905Y-44854628D01*
X160635901Y-44854619D01*
X160599056Y-44802422D01*
X160597256Y-44799532D01*
X160596430Y-44798702D01*
X160492740Y-44651806D01*
X160491040Y-44646827D01*
X160482198Y-44637986D01*
X160480703Y-44636439D01*
X160435983Y-44588556D01*
X160435972Y-44588543D01*
X160435088Y-44587487D01*
X160434734Y-44587218D01*
X160311824Y-44455614D01*
X160309273Y-44450537D01*
X160280648Y-44429109D01*
X160278644Y-44427545D01*
X160278628Y-44427532D01*
X160105432Y-44286626D01*
X160105426Y-44286622D01*
X160105293Y-44286514D01*
X160101848Y-44281502D01*
X160055710Y-44256309D01*
X160053185Y-44254854D01*
X159882703Y-44151181D01*
X159882699Y-44151179D01*
X159879025Y-44148945D01*
X159879832Y-44147617D01*
X159876477Y-44144403D01*
X159811676Y-44120234D01*
X159808594Y-44118990D01*
X159712532Y-44077265D01*
X159643604Y-44047326D01*
X159643598Y-44047324D01*
X159639673Y-44045929D01*
X159629352Y-44038449D01*
X159553237Y-44021892D01*
X159549644Y-44020999D01*
X159476857Y-44000605D01*
X159392600Y-43976997D01*
X159392596Y-43976996D01*
X159392591Y-43976995D01*
X159390763Y-43976743D01*
X159390231Y-43976504D01*
X159388384Y-43976121D01*
X159388468Y-43975713D01*
X159372009Y-43968319D01*
X159285374Y-43962123D01*
X159281289Y-43961697D01*
X159134353Y-43941500D01*
X159134340Y-43941500D01*
X159004099Y-43941500D01*
X148844500Y-43941500D01*
X148844000Y-43941500D01*
X148713660Y-43941500D01*
X148713646Y-43941500D01*
X148566707Y-43961697D01*
X148562623Y-43962123D01*
X148481231Y-43967945D01*
X148459568Y-43975890D01*
X148459616Y-43976121D01*
X148458057Y-43976444D01*
X148457247Y-43976742D01*
X148455411Y-43976994D01*
X148298378Y-44020993D01*
X148294772Y-44021889D01*
X148222867Y-44037531D01*
X148208340Y-44045924D01*
X148204397Y-44047325D01*
X148039415Y-44118986D01*
X148036333Y-44120230D01*
X147975069Y-44143079D01*
X147968514Y-44148189D01*
X147968974Y-44148945D01*
X147794839Y-44254839D01*
X147792298Y-44256304D01*
X147748326Y-44280315D01*
X147742707Y-44286513D01*
X147603770Y-44399545D01*
X147603769Y-44399547D01*
X147569371Y-44427532D01*
X147567366Y-44429097D01*
X147540585Y-44449145D01*
X147536173Y-44455617D01*
X147413264Y-44587219D01*
X147413009Y-44587369D01*
X147412016Y-44588556D01*
X147367323Y-44636410D01*
X147365829Y-44637956D01*
X147358484Y-44645300D01*
X147355260Y-44651806D01*
X147251569Y-44798703D01*
X147250956Y-44799189D01*
X147248927Y-44802445D01*
X147212096Y-44854622D01*
X147208429Y-44860651D01*
X147205643Y-44864771D01*
X147203483Y-44871246D01*
X147120850Y-45030722D01*
X147119989Y-45031620D01*
X147117638Y-45036920D01*
X147092170Y-45086071D01*
X147092169Y-45086073D01*
X147091114Y-45089043D01*
X147085143Y-45102387D01*
X147083795Y-45109637D01*
X147023691Y-45278753D01*
X147022694Y-45280128D01*
X147020636Y-45287347D01*
X147004873Y-45331702D01*
X147004867Y-45331721D01*
X147002661Y-45342339D01*
X146998811Y-45355678D01*
X146998508Y-45362327D01*
X146962008Y-45537978D01*
X146960958Y-45539943D01*
X146960923Y-45540438D01*
X146959765Y-45548765D01*
X146951836Y-45586924D01*
X146951834Y-45586940D01*
X146950559Y-45605584D01*
X146948725Y-45618476D01*
X146949273Y-45624380D01*
X146937034Y-45803323D01*
X146936063Y-45805949D01*
X146936153Y-45807199D01*
X146936167Y-45816000D01*
X146934047Y-45846992D01*
X146934047Y-45847005D01*
X127000500Y-45847005D01*
X127000500Y-41401500D01*
X127020502Y-41333379D01*
X127074158Y-41286886D01*
X127126500Y-41275500D01*
X180848500Y-41275500D01*
X180916621Y-41295502D01*
G37*
%TD.AperFunction*%
%TD*%
M02*
